ISO-10303-21;
HEADER;
/* Generated by software containing ST-Developer
 * from STEP Tools, Inc. (www.steptools.com) 
 */

FILE_DESCRIPTION(
/* description */ (''),
/* implementation_level */ '2;1');

FILE_NAME(
/* name */ 'RAMSidePlate.step',
/* time_stamp */ '2026-09-01T00:57:07+08:00',
/* author */ (''),
/* organization */ (''),
/* preprocessor_version */ 'ST-DEVELOPER v20.1',
/* originating_system */ 'Autodesk Translation Framework v15.8.0.0',
/* authorisation */ '');

FILE_SCHEMA (('AUTOMOTIVE_DESIGN { 1 0 10303 214 3 1 1 }','TECHNICAL_DATA_PACKAGING',
'INTEGRATED_CNC_SCHEMA','AP242_MANAGED_MODEL_BASED_3D_ENGINEERING_MIM_LF { 1 0 10303 442 3 1 4 }'));
ENDSEC;

DATA;
#10=MECHANICAL_DESIGN_GEOMETRIC_PRESENTATION_REPRESENTATION('',(#13),#752);
#11=SHAPE_REPRESENTATION_RELATIONSHIP('SRR','None',#759,#12);
#12=ADVANCED_BREP_SHAPE_REPRESENTATION('',(#14),#751);
#13=STYLED_ITEM('',(#768),#14);
#14=MANIFOLD_SOLID_BREP('RAMSidePlate_QTY1',#436);
#15=FACE_BOUND('',#84,.T.);
#16=FACE_BOUND('',#85,.T.);
#17=FACE_BOUND('',#86,.T.);
#18=FACE_BOUND('',#87,.T.);
#19=FACE_BOUND('',#88,.T.);
#20=FACE_BOUND('',#89,.T.);
#21=FACE_BOUND('',#90,.T.);
#22=FACE_BOUND('',#91,.T.);
#23=FACE_BOUND('',#92,.T.);
#24=FACE_BOUND('',#93,.T.);
#25=FACE_BOUND('',#94,.T.);
#26=FACE_BOUND('',#96,.T.);
#27=FACE_BOUND('',#97,.T.);
#28=FACE_BOUND('',#98,.T.);
#29=FACE_BOUND('',#99,.T.);
#30=FACE_BOUND('',#100,.T.);
#31=FACE_BOUND('',#101,.T.);
#32=FACE_BOUND('',#102,.T.);
#33=FACE_BOUND('',#103,.T.);
#34=FACE_BOUND('',#104,.T.);
#35=FACE_BOUND('',#105,.T.);
#36=FACE_BOUND('',#106,.T.);
#37=PLANE('',#483);
#38=PLANE('',#487);
#39=PLANE('',#491);
#40=PLANE('',#495);
#41=PLANE('',#499);
#42=PLANE('',#500);
#43=FACE_OUTER_BOUND('',#64,.T.);
#44=FACE_OUTER_BOUND('',#65,.T.);
#45=FACE_OUTER_BOUND('',#66,.T.);
#46=FACE_OUTER_BOUND('',#67,.T.);
#47=FACE_OUTER_BOUND('',#68,.T.);
#48=FACE_OUTER_BOUND('',#69,.T.);
#49=FACE_OUTER_BOUND('',#70,.T.);
#50=FACE_OUTER_BOUND('',#71,.T.);
#51=FACE_OUTER_BOUND('',#72,.T.);
#52=FACE_OUTER_BOUND('',#73,.T.);
#53=FACE_OUTER_BOUND('',#74,.T.);
#54=FACE_OUTER_BOUND('',#75,.T.);
#55=FACE_OUTER_BOUND('',#76,.T.);
#56=FACE_OUTER_BOUND('',#77,.T.);
#57=FACE_OUTER_BOUND('',#78,.T.);
#58=FACE_OUTER_BOUND('',#79,.T.);
#59=FACE_OUTER_BOUND('',#80,.T.);
#60=FACE_OUTER_BOUND('',#81,.T.);
#61=FACE_OUTER_BOUND('',#82,.T.);
#62=FACE_OUTER_BOUND('',#83,.T.);
#63=FACE_OUTER_BOUND('',#95,.T.);
#64=EDGE_LOOP('',(#286,#287,#288,#289));
#65=EDGE_LOOP('',(#290,#291,#292,#293));
#66=EDGE_LOOP('',(#294,#295,#296,#297));
#67=EDGE_LOOP('',(#298,#299,#300,#301));
#68=EDGE_LOOP('',(#302,#303,#304,#305));
#69=EDGE_LOOP('',(#306,#307,#308,#309));
#70=EDGE_LOOP('',(#310,#311,#312,#313));
#71=EDGE_LOOP('',(#314,#315,#316,#317));
#72=EDGE_LOOP('',(#318,#319,#320,#321));
#73=EDGE_LOOP('',(#322,#323,#324,#325));
#74=EDGE_LOOP('',(#326,#327,#328,#329));
#75=EDGE_LOOP('',(#330,#331,#332,#333));
#76=EDGE_LOOP('',(#334,#335,#336,#337));
#77=EDGE_LOOP('',(#338,#339,#340,#341));
#78=EDGE_LOOP('',(#342,#343,#344,#345));
#79=EDGE_LOOP('',(#346,#347,#348,#349));
#80=EDGE_LOOP('',(#350,#351,#352,#353));
#81=EDGE_LOOP('',(#354,#355,#356,#357));
#82=EDGE_LOOP('',(#358,#359,#360,#361));
#83=EDGE_LOOP('',(#362,#363,#364,#365,#366,#367,#368,#369));
#84=EDGE_LOOP('',(#370));
#85=EDGE_LOOP('',(#371));
#86=EDGE_LOOP('',(#372));
#87=EDGE_LOOP('',(#373));
#88=EDGE_LOOP('',(#374));
#89=EDGE_LOOP('',(#375));
#90=EDGE_LOOP('',(#376));
#91=EDGE_LOOP('',(#377));
#92=EDGE_LOOP('',(#378));
#93=EDGE_LOOP('',(#379));
#94=EDGE_LOOP('',(#380));
#95=EDGE_LOOP('',(#381,#382,#383,#384,#385,#386,#387,#388));
#96=EDGE_LOOP('',(#389));
#97=EDGE_LOOP('',(#390));
#98=EDGE_LOOP('',(#391));
#99=EDGE_LOOP('',(#392));
#100=EDGE_LOOP('',(#393));
#101=EDGE_LOOP('',(#394));
#102=EDGE_LOOP('',(#395));
#103=EDGE_LOOP('',(#396));
#104=EDGE_LOOP('',(#397));
#105=EDGE_LOOP('',(#398));
#106=EDGE_LOOP('',(#399));
#107=LINE('',#637,#134);
#108=LINE('',#643,#135);
#109=LINE('',#649,#136);
#110=LINE('',#655,#137);
#111=LINE('',#661,#138);
#112=LINE('',#667,#139);
#113=LINE('',#673,#140);
#114=LINE('',#679,#141);
#115=LINE('',#685,#142);
#116=LINE('',#691,#143);
#117=LINE('',#697,#144);
#118=LINE('',#702,#145);
#119=LINE('',#704,#146);
#120=LINE('',#706,#147);
#121=LINE('',#707,#148);
#122=LINE('',#713,#149);
#123=LINE('',#716,#150);
#124=LINE('',#718,#151);
#125=LINE('',#719,#152);
#126=LINE('',#725,#153);
#127=LINE('',#728,#154);
#128=LINE('',#730,#155);
#129=LINE('',#731,#156);
#130=LINE('',#737,#157);
#131=LINE('',#740,#158);
#132=LINE('',#742,#159);
#133=LINE('',#743,#160);
#134=VECTOR('',#507,1.5);
#135=VECTOR('',#514,0.16);
#136=VECTOR('',#521,2.75);
#137=VECTOR('',#528,0.16);
#138=VECTOR('',#535,0.16);
#139=VECTOR('',#542,0.16);
#140=VECTOR('',#549,0.16);
#141=VECTOR('',#556,2.75);
#142=VECTOR('',#563,0.16);
#143=VECTOR('',#570,0.16);
#144=VECTOR('',#577,0.16);
#145=VECTOR('',#582,1.);
#146=VECTOR('',#583,1.);
#147=VECTOR('',#584,1.);
#148=VECTOR('',#585,1.);
#149=VECTOR('',#592,1.);
#150=VECTOR('',#595,1.);
#151=VECTOR('',#596,1.);
#152=VECTOR('',#597,1.);
#153=VECTOR('',#604,1.);
#154=VECTOR('',#607,1.);
#155=VECTOR('',#608,1.);
#156=VECTOR('',#609,1.);
#157=VECTOR('',#616,1.);
#158=VECTOR('',#619,1.);
#159=VECTOR('',#620,1.);
#160=VECTOR('',#621,1.);
#161=CIRCLE('',#451,1.5);
#162=CIRCLE('',#452,1.5);
#163=CIRCLE('',#454,0.16);
#164=CIRCLE('',#455,0.16);
#165=CIRCLE('',#457,2.75);
#166=CIRCLE('',#458,2.75);
#167=CIRCLE('',#460,0.16);
#168=CIRCLE('',#461,0.16);
#169=CIRCLE('',#463,0.16);
#170=CIRCLE('',#464,0.16);
#171=CIRCLE('',#466,0.16);
#172=CIRCLE('',#467,0.16);
#173=CIRCLE('',#469,0.16);
#174=CIRCLE('',#470,0.16);
#175=CIRCLE('',#472,2.75);
#176=CIRCLE('',#473,2.75);
#177=CIRCLE('',#475,0.16);
#178=CIRCLE('',#476,0.16);
#179=CIRCLE('',#478,0.16);
#180=CIRCLE('',#479,0.16);
#181=CIRCLE('',#481,0.16);
#182=CIRCLE('',#482,0.16);
#183=CIRCLE('',#485,0.299999999999999);
#184=CIRCLE('',#486,0.299999999999999);
#185=CIRCLE('',#489,0.299999999999997);
#186=CIRCLE('',#490,0.299999999999997);
#187=CIRCLE('',#493,0.299999999999999);
#188=CIRCLE('',#494,0.299999999999999);
#189=CIRCLE('',#497,0.299999999999997);
#190=CIRCLE('',#498,0.299999999999997);
#191=VERTEX_POINT('',#634);
#192=VERTEX_POINT('',#636);
#193=VERTEX_POINT('',#640);
#194=VERTEX_POINT('',#642);
#195=VERTEX_POINT('',#646);
#196=VERTEX_POINT('',#648);
#197=VERTEX_POINT('',#652);
#198=VERTEX_POINT('',#654);
#199=VERTEX_POINT('',#658);
#200=VERTEX_POINT('',#660);
#201=VERTEX_POINT('',#664);
#202=VERTEX_POINT('',#666);
#203=VERTEX_POINT('',#670);
#204=VERTEX_POINT('',#672);
#205=VERTEX_POINT('',#676);
#206=VERTEX_POINT('',#678);
#207=VERTEX_POINT('',#682);
#208=VERTEX_POINT('',#684);
#209=VERTEX_POINT('',#688);
#210=VERTEX_POINT('',#690);
#211=VERTEX_POINT('',#694);
#212=VERTEX_POINT('',#696);
#213=VERTEX_POINT('',#700);
#214=VERTEX_POINT('',#701);
#215=VERTEX_POINT('',#703);
#216=VERTEX_POINT('',#705);
#217=VERTEX_POINT('',#709);
#218=VERTEX_POINT('',#711);
#219=VERTEX_POINT('',#715);
#220=VERTEX_POINT('',#717);
#221=VERTEX_POINT('',#721);
#222=VERTEX_POINT('',#723);
#223=VERTEX_POINT('',#727);
#224=VERTEX_POINT('',#729);
#225=VERTEX_POINT('',#733);
#226=VERTEX_POINT('',#735);
#227=VERTEX_POINT('',#739);
#228=VERTEX_POINT('',#741);
#229=EDGE_CURVE('',#191,#191,#161,.T.);
#230=EDGE_CURVE('',#191,#192,#107,.T.);
#231=EDGE_CURVE('',#192,#192,#162,.T.);
#232=EDGE_CURVE('',#193,#193,#163,.T.);
#233=EDGE_CURVE('',#193,#194,#108,.T.);
#234=EDGE_CURVE('',#194,#194,#164,.T.);
#235=EDGE_CURVE('',#195,#195,#165,.T.);
#236=EDGE_CURVE('',#195,#196,#109,.T.);
#237=EDGE_CURVE('',#196,#196,#166,.T.);
#238=EDGE_CURVE('',#197,#197,#167,.T.);
#239=EDGE_CURVE('',#197,#198,#110,.T.);
#240=EDGE_CURVE('',#198,#198,#168,.T.);
#241=EDGE_CURVE('',#199,#199,#169,.T.);
#242=EDGE_CURVE('',#199,#200,#111,.T.);
#243=EDGE_CURVE('',#200,#200,#170,.T.);
#244=EDGE_CURVE('',#201,#201,#171,.T.);
#245=EDGE_CURVE('',#201,#202,#112,.T.);
#246=EDGE_CURVE('',#202,#202,#172,.T.);
#247=EDGE_CURVE('',#203,#203,#173,.T.);
#248=EDGE_CURVE('',#203,#204,#113,.T.);
#249=EDGE_CURVE('',#204,#204,#174,.T.);
#250=EDGE_CURVE('',#205,#205,#175,.T.);
#251=EDGE_CURVE('',#205,#206,#114,.T.);
#252=EDGE_CURVE('',#206,#206,#176,.T.);
#253=EDGE_CURVE('',#207,#207,#177,.T.);
#254=EDGE_CURVE('',#207,#208,#115,.T.);
#255=EDGE_CURVE('',#208,#208,#178,.T.);
#256=EDGE_CURVE('',#209,#209,#179,.T.);
#257=EDGE_CURVE('',#209,#210,#116,.T.);
#258=EDGE_CURVE('',#210,#210,#180,.T.);
#259=EDGE_CURVE('',#211,#211,#181,.T.);
#260=EDGE_CURVE('',#211,#212,#117,.T.);
#261=EDGE_CURVE('',#212,#212,#182,.T.);
#262=EDGE_CURVE('',#213,#214,#118,.T.);
#263=EDGE_CURVE('',#214,#215,#119,.T.);
#264=EDGE_CURVE('',#216,#215,#120,.T.);
#265=EDGE_CURVE('',#213,#216,#121,.T.);
#266=EDGE_CURVE('',#217,#213,#183,.T.);
#267=EDGE_CURVE('',#218,#216,#184,.T.);
#268=EDGE_CURVE('',#217,#218,#122,.T.);
#269=EDGE_CURVE('',#219,#217,#123,.T.);
#270=EDGE_CURVE('',#220,#218,#124,.T.);
#271=EDGE_CURVE('',#219,#220,#125,.T.);
#272=EDGE_CURVE('',#221,#219,#185,.T.);
#273=EDGE_CURVE('',#222,#220,#186,.T.);
#274=EDGE_CURVE('',#221,#222,#126,.T.);
#275=EDGE_CURVE('',#223,#221,#127,.T.);
#276=EDGE_CURVE('',#224,#222,#128,.T.);
#277=EDGE_CURVE('',#223,#224,#129,.T.);
#278=EDGE_CURVE('',#225,#223,#187,.T.);
#279=EDGE_CURVE('',#226,#224,#188,.T.);
#280=EDGE_CURVE('',#225,#226,#130,.T.);
#281=EDGE_CURVE('',#227,#225,#131,.T.);
#282=EDGE_CURVE('',#228,#226,#132,.T.);
#283=EDGE_CURVE('',#227,#228,#133,.T.);
#284=EDGE_CURVE('',#214,#227,#189,.T.);
#285=EDGE_CURVE('',#215,#228,#190,.T.);
#286=ORIENTED_EDGE('',*,*,#229,.F.);
#287=ORIENTED_EDGE('',*,*,#230,.T.);
#288=ORIENTED_EDGE('',*,*,#231,.T.);
#289=ORIENTED_EDGE('',*,*,#230,.F.);
#290=ORIENTED_EDGE('',*,*,#232,.F.);
#291=ORIENTED_EDGE('',*,*,#233,.T.);
#292=ORIENTED_EDGE('',*,*,#234,.T.);
#293=ORIENTED_EDGE('',*,*,#233,.F.);
#294=ORIENTED_EDGE('',*,*,#235,.F.);
#295=ORIENTED_EDGE('',*,*,#236,.T.);
#296=ORIENTED_EDGE('',*,*,#237,.T.);
#297=ORIENTED_EDGE('',*,*,#236,.F.);
#298=ORIENTED_EDGE('',*,*,#238,.F.);
#299=ORIENTED_EDGE('',*,*,#239,.T.);
#300=ORIENTED_EDGE('',*,*,#240,.T.);
#301=ORIENTED_EDGE('',*,*,#239,.F.);
#302=ORIENTED_EDGE('',*,*,#241,.F.);
#303=ORIENTED_EDGE('',*,*,#242,.T.);
#304=ORIENTED_EDGE('',*,*,#243,.T.);
#305=ORIENTED_EDGE('',*,*,#242,.F.);
#306=ORIENTED_EDGE('',*,*,#244,.F.);
#307=ORIENTED_EDGE('',*,*,#245,.T.);
#308=ORIENTED_EDGE('',*,*,#246,.T.);
#309=ORIENTED_EDGE('',*,*,#245,.F.);
#310=ORIENTED_EDGE('',*,*,#247,.F.);
#311=ORIENTED_EDGE('',*,*,#248,.T.);
#312=ORIENTED_EDGE('',*,*,#249,.T.);
#313=ORIENTED_EDGE('',*,*,#248,.F.);
#314=ORIENTED_EDGE('',*,*,#250,.F.);
#315=ORIENTED_EDGE('',*,*,#251,.T.);
#316=ORIENTED_EDGE('',*,*,#252,.T.);
#317=ORIENTED_EDGE('',*,*,#251,.F.);
#318=ORIENTED_EDGE('',*,*,#253,.F.);
#319=ORIENTED_EDGE('',*,*,#254,.T.);
#320=ORIENTED_EDGE('',*,*,#255,.T.);
#321=ORIENTED_EDGE('',*,*,#254,.F.);
#322=ORIENTED_EDGE('',*,*,#256,.F.);
#323=ORIENTED_EDGE('',*,*,#257,.T.);
#324=ORIENTED_EDGE('',*,*,#258,.T.);
#325=ORIENTED_EDGE('',*,*,#257,.F.);
#326=ORIENTED_EDGE('',*,*,#259,.F.);
#327=ORIENTED_EDGE('',*,*,#260,.T.);
#328=ORIENTED_EDGE('',*,*,#261,.T.);
#329=ORIENTED_EDGE('',*,*,#260,.F.);
#330=ORIENTED_EDGE('',*,*,#262,.T.);
#331=ORIENTED_EDGE('',*,*,#263,.T.);
#332=ORIENTED_EDGE('',*,*,#264,.F.);
#333=ORIENTED_EDGE('',*,*,#265,.F.);
#334=ORIENTED_EDGE('',*,*,#266,.T.);
#335=ORIENTED_EDGE('',*,*,#265,.T.);
#336=ORIENTED_EDGE('',*,*,#267,.F.);
#337=ORIENTED_EDGE('',*,*,#268,.F.);
#338=ORIENTED_EDGE('',*,*,#269,.T.);
#339=ORIENTED_EDGE('',*,*,#268,.T.);
#340=ORIENTED_EDGE('',*,*,#270,.F.);
#341=ORIENTED_EDGE('',*,*,#271,.F.);
#342=ORIENTED_EDGE('',*,*,#272,.T.);
#343=ORIENTED_EDGE('',*,*,#271,.T.);
#344=ORIENTED_EDGE('',*,*,#273,.F.);
#345=ORIENTED_EDGE('',*,*,#274,.F.);
#346=ORIENTED_EDGE('',*,*,#275,.T.);
#347=ORIENTED_EDGE('',*,*,#274,.T.);
#348=ORIENTED_EDGE('',*,*,#276,.F.);
#349=ORIENTED_EDGE('',*,*,#277,.F.);
#350=ORIENTED_EDGE('',*,*,#278,.T.);
#351=ORIENTED_EDGE('',*,*,#277,.T.);
#352=ORIENTED_EDGE('',*,*,#279,.F.);
#353=ORIENTED_EDGE('',*,*,#280,.F.);
#354=ORIENTED_EDGE('',*,*,#281,.T.);
#355=ORIENTED_EDGE('',*,*,#280,.T.);
#356=ORIENTED_EDGE('',*,*,#282,.F.);
#357=ORIENTED_EDGE('',*,*,#283,.F.);
#358=ORIENTED_EDGE('',*,*,#284,.T.);
#359=ORIENTED_EDGE('',*,*,#283,.T.);
#360=ORIENTED_EDGE('',*,*,#285,.F.);
#361=ORIENTED_EDGE('',*,*,#263,.F.);
#362=ORIENTED_EDGE('',*,*,#285,.T.);
#363=ORIENTED_EDGE('',*,*,#282,.T.);
#364=ORIENTED_EDGE('',*,*,#279,.T.);
#365=ORIENTED_EDGE('',*,*,#276,.T.);
#366=ORIENTED_EDGE('',*,*,#273,.T.);
#367=ORIENTED_EDGE('',*,*,#270,.T.);
#368=ORIENTED_EDGE('',*,*,#267,.T.);
#369=ORIENTED_EDGE('',*,*,#264,.T.);
#370=ORIENTED_EDGE('',*,*,#259,.T.);
#371=ORIENTED_EDGE('',*,*,#256,.T.);
#372=ORIENTED_EDGE('',*,*,#253,.T.);
#373=ORIENTED_EDGE('',*,*,#250,.T.);
#374=ORIENTED_EDGE('',*,*,#247,.T.);
#375=ORIENTED_EDGE('',*,*,#244,.T.);
#376=ORIENTED_EDGE('',*,*,#241,.T.);
#377=ORIENTED_EDGE('',*,*,#238,.T.);
#378=ORIENTED_EDGE('',*,*,#235,.T.);
#379=ORIENTED_EDGE('',*,*,#232,.T.);
#380=ORIENTED_EDGE('',*,*,#229,.T.);
#381=ORIENTED_EDGE('',*,*,#284,.F.);
#382=ORIENTED_EDGE('',*,*,#262,.F.);
#383=ORIENTED_EDGE('',*,*,#266,.F.);
#384=ORIENTED_EDGE('',*,*,#269,.F.);
#385=ORIENTED_EDGE('',*,*,#272,.F.);
#386=ORIENTED_EDGE('',*,*,#275,.F.);
#387=ORIENTED_EDGE('',*,*,#278,.F.);
#388=ORIENTED_EDGE('',*,*,#281,.F.);
#389=ORIENTED_EDGE('',*,*,#261,.F.);
#390=ORIENTED_EDGE('',*,*,#258,.F.);
#391=ORIENTED_EDGE('',*,*,#255,.F.);
#392=ORIENTED_EDGE('',*,*,#252,.F.);
#393=ORIENTED_EDGE('',*,*,#249,.F.);
#394=ORIENTED_EDGE('',*,*,#246,.F.);
#395=ORIENTED_EDGE('',*,*,#243,.F.);
#396=ORIENTED_EDGE('',*,*,#240,.F.);
#397=ORIENTED_EDGE('',*,*,#237,.F.);
#398=ORIENTED_EDGE('',*,*,#234,.F.);
#399=ORIENTED_EDGE('',*,*,#231,.F.);
#400=CYLINDRICAL_SURFACE('',#450,1.5);
#401=CYLINDRICAL_SURFACE('',#453,0.16);
#402=CYLINDRICAL_SURFACE('',#456,2.75);
#403=CYLINDRICAL_SURFACE('',#459,0.16);
#404=CYLINDRICAL_SURFACE('',#462,0.16);
#405=CYLINDRICAL_SURFACE('',#465,0.16);
#406=CYLINDRICAL_SURFACE('',#468,0.16);
#407=CYLINDRICAL_SURFACE('',#471,2.75);
#408=CYLINDRICAL_SURFACE('',#474,0.16);
#409=CYLINDRICAL_SURFACE('',#477,0.16);
#410=CYLINDRICAL_SURFACE('',#480,0.16);
#411=CYLINDRICAL_SURFACE('',#484,0.299999999999999);
#412=CYLINDRICAL_SURFACE('',#488,0.299999999999997);
#413=CYLINDRICAL_SURFACE('',#492,0.299999999999999);
#414=CYLINDRICAL_SURFACE('',#496,0.299999999999997);
#415=ADVANCED_FACE('',(#43),#400,.F.);
#416=ADVANCED_FACE('',(#44),#401,.F.);
#417=ADVANCED_FACE('',(#45),#402,.F.);
#418=ADVANCED_FACE('',(#46),#403,.F.);
#419=ADVANCED_FACE('',(#47),#404,.F.);
#420=ADVANCED_FACE('',(#48),#405,.F.);
#421=ADVANCED_FACE('',(#49),#406,.F.);
#422=ADVANCED_FACE('',(#50),#407,.F.);
#423=ADVANCED_FACE('',(#51),#408,.F.);
#424=ADVANCED_FACE('',(#52),#409,.F.);
#425=ADVANCED_FACE('',(#53),#410,.F.);
#426=ADVANCED_FACE('',(#54),#37,.T.);
#427=ADVANCED_FACE('',(#55),#411,.T.);
#428=ADVANCED_FACE('',(#56),#38,.T.);
#429=ADVANCED_FACE('',(#57),#412,.T.);
#430=ADVANCED_FACE('',(#58),#39,.T.);
#431=ADVANCED_FACE('',(#59),#413,.T.);
#432=ADVANCED_FACE('',(#60),#40,.T.);
#433=ADVANCED_FACE('',(#61),#414,.T.);
#434=ADVANCED_FACE('',(#62,#15,#16,#17,#18,#19,#20,#21,#22,#23,#24,#25),
#41,.T.);
#435=ADVANCED_FACE('',(#63,#26,#27,#28,#29,#30,#31,#32,#33,#34,#35,#36),
#42,.F.);
#436=CLOSED_SHELL('',(#415,#416,#417,#418,#419,#420,#421,#422,#423,#424,
#425,#426,#427,#428,#429,#430,#431,#432,#433,#434,#435));
#437=DERIVED_UNIT_ELEMENT(#439,1.);
#438=DERIVED_UNIT_ELEMENT(#754,-3.);
#439=(
MASS_UNIT()
NAMED_UNIT(*)
SI_UNIT(.KILO.,.GRAM.)
);
#440=DERIVED_UNIT((#437,#438));
#441=MEASURE_REPRESENTATION_ITEM('density measure',
POSITIVE_RATIO_MEASURE(7850.),#440);
#442=PROPERTY_DEFINITION_REPRESENTATION(#447,#444);
#443=PROPERTY_DEFINITION_REPRESENTATION(#448,#445);
#444=REPRESENTATION('material name',(#446),#751);
#445=REPRESENTATION('density',(#441),#751);
#446=DESCRIPTIVE_REPRESENTATION_ITEM('Steel','Steel');
#447=PROPERTY_DEFINITION('material property','material name',#761);
#448=PROPERTY_DEFINITION('material property','density of part',#761);
#449=AXIS2_PLACEMENT_3D('',#632,#501,#502);
#450=AXIS2_PLACEMENT_3D('',#633,#503,#504);
#451=AXIS2_PLACEMENT_3D('',#635,#505,#506);
#452=AXIS2_PLACEMENT_3D('',#638,#508,#509);
#453=AXIS2_PLACEMENT_3D('',#639,#510,#511);
#454=AXIS2_PLACEMENT_3D('',#641,#512,#513);
#455=AXIS2_PLACEMENT_3D('',#644,#515,#516);
#456=AXIS2_PLACEMENT_3D('',#645,#517,#518);
#457=AXIS2_PLACEMENT_3D('',#647,#519,#520);
#458=AXIS2_PLACEMENT_3D('',#650,#522,#523);
#459=AXIS2_PLACEMENT_3D('',#651,#524,#525);
#460=AXIS2_PLACEMENT_3D('',#653,#526,#527);
#461=AXIS2_PLACEMENT_3D('',#656,#529,#530);
#462=AXIS2_PLACEMENT_3D('',#657,#531,#532);
#463=AXIS2_PLACEMENT_3D('',#659,#533,#534);
#464=AXIS2_PLACEMENT_3D('',#662,#536,#537);
#465=AXIS2_PLACEMENT_3D('',#663,#538,#539);
#466=AXIS2_PLACEMENT_3D('',#665,#540,#541);
#467=AXIS2_PLACEMENT_3D('',#668,#543,#544);
#468=AXIS2_PLACEMENT_3D('',#669,#545,#546);
#469=AXIS2_PLACEMENT_3D('',#671,#547,#548);
#470=AXIS2_PLACEMENT_3D('',#674,#550,#551);
#471=AXIS2_PLACEMENT_3D('',#675,#552,#553);
#472=AXIS2_PLACEMENT_3D('',#677,#554,#555);
#473=AXIS2_PLACEMENT_3D('',#680,#557,#558);
#474=AXIS2_PLACEMENT_3D('',#681,#559,#560);
#475=AXIS2_PLACEMENT_3D('',#683,#561,#562);
#476=AXIS2_PLACEMENT_3D('',#686,#564,#565);
#477=AXIS2_PLACEMENT_3D('',#687,#566,#567);
#478=AXIS2_PLACEMENT_3D('',#689,#568,#569);
#479=AXIS2_PLACEMENT_3D('',#692,#571,#572);
#480=AXIS2_PLACEMENT_3D('',#693,#573,#574);
#481=AXIS2_PLACEMENT_3D('',#695,#575,#576);
#482=AXIS2_PLACEMENT_3D('',#698,#578,#579);
#483=AXIS2_PLACEMENT_3D('',#699,#580,#581);
#484=AXIS2_PLACEMENT_3D('',#708,#586,#587);
#485=AXIS2_PLACEMENT_3D('',#710,#588,#589);
#486=AXIS2_PLACEMENT_3D('',#712,#590,#591);
#487=AXIS2_PLACEMENT_3D('',#714,#593,#594);
#488=AXIS2_PLACEMENT_3D('',#720,#598,#599);
#489=AXIS2_PLACEMENT_3D('',#722,#600,#601);
#490=AXIS2_PLACEMENT_3D('',#724,#602,#603);
#491=AXIS2_PLACEMENT_3D('',#726,#605,#606);
#492=AXIS2_PLACEMENT_3D('',#732,#610,#611);
#493=AXIS2_PLACEMENT_3D('',#734,#612,#613);
#494=AXIS2_PLACEMENT_3D('',#736,#614,#615);
#495=AXIS2_PLACEMENT_3D('',#738,#617,#618);
#496=AXIS2_PLACEMENT_3D('',#744,#622,#623);
#497=AXIS2_PLACEMENT_3D('',#745,#624,#625);
#498=AXIS2_PLACEMENT_3D('',#746,#626,#627);
#499=AXIS2_PLACEMENT_3D('',#747,#628,#629);
#500=AXIS2_PLACEMENT_3D('',#748,#630,#631);
#501=DIRECTION('axis',(0.,0.,1.));
#502=DIRECTION('refdir',(1.,0.,0.));
#503=DIRECTION('center_axis',(0.,0.,1.));
#504=DIRECTION('ref_axis',(1.,0.,0.));
#505=DIRECTION('center_axis',(0.,0.,-1.));
#506=DIRECTION('ref_axis',(1.,0.,0.));
#507=DIRECTION('',(0.,0.,-1.));
#508=DIRECTION('center_axis',(0.,0.,-1.));
#509=DIRECTION('ref_axis',(1.,0.,0.));
#510=DIRECTION('center_axis',(0.,0.,1.));
#511=DIRECTION('ref_axis',(1.,0.,0.));
#512=DIRECTION('center_axis',(0.,0.,-1.));
#513=DIRECTION('ref_axis',(1.,0.,0.));
#514=DIRECTION('',(0.,0.,-1.));
#515=DIRECTION('center_axis',(0.,0.,-1.));
#516=DIRECTION('ref_axis',(1.,0.,0.));
#517=DIRECTION('center_axis',(0.,0.,1.));
#518=DIRECTION('ref_axis',(1.,0.,0.));
#519=DIRECTION('center_axis',(0.,0.,-1.));
#520=DIRECTION('ref_axis',(1.,0.,0.));
#521=DIRECTION('',(0.,0.,-1.));
#522=DIRECTION('center_axis',(0.,0.,-1.));
#523=DIRECTION('ref_axis',(1.,0.,0.));
#524=DIRECTION('center_axis',(0.,0.,1.));
#525=DIRECTION('ref_axis',(1.,0.,0.));
#526=DIRECTION('center_axis',(0.,0.,-1.));
#527=DIRECTION('ref_axis',(1.,0.,0.));
#528=DIRECTION('',(0.,0.,-1.));
#529=DIRECTION('center_axis',(0.,0.,-1.));
#530=DIRECTION('ref_axis',(1.,0.,0.));
#531=DIRECTION('center_axis',(0.,0.,1.));
#532=DIRECTION('ref_axis',(1.,0.,0.));
#533=DIRECTION('center_axis',(0.,0.,-1.));
#534=DIRECTION('ref_axis',(1.,0.,0.));
#535=DIRECTION('',(0.,0.,-1.));
#536=DIRECTION('center_axis',(0.,0.,-1.));
#537=DIRECTION('ref_axis',(1.,0.,0.));
#538=DIRECTION('center_axis',(0.,0.,1.));
#539=DIRECTION('ref_axis',(1.,0.,0.));
#540=DIRECTION('center_axis',(0.,0.,-1.));
#541=DIRECTION('ref_axis',(1.,0.,0.));
#542=DIRECTION('',(0.,0.,-1.));
#543=DIRECTION('center_axis',(0.,0.,-1.));
#544=DIRECTION('ref_axis',(1.,0.,0.));
#545=DIRECTION('center_axis',(0.,0.,1.));
#546=DIRECTION('ref_axis',(1.,0.,0.));
#547=DIRECTION('center_axis',(0.,0.,-1.));
#548=DIRECTION('ref_axis',(1.,0.,0.));
#549=DIRECTION('',(0.,0.,-1.));
#550=DIRECTION('center_axis',(0.,0.,-1.));
#551=DIRECTION('ref_axis',(1.,0.,0.));
#552=DIRECTION('center_axis',(0.,0.,1.));
#553=DIRECTION('ref_axis',(1.,0.,0.));
#554=DIRECTION('center_axis',(0.,0.,-1.));
#555=DIRECTION('ref_axis',(1.,0.,0.));
#556=DIRECTION('',(0.,0.,-1.));
#557=DIRECTION('center_axis',(0.,0.,-1.));
#558=DIRECTION('ref_axis',(1.,0.,0.));
#559=DIRECTION('center_axis',(0.,0.,1.));
#560=DIRECTION('ref_axis',(1.,0.,0.));
#561=DIRECTION('center_axis',(0.,0.,-1.));
#562=DIRECTION('ref_axis',(1.,0.,0.));
#563=DIRECTION('',(0.,0.,-1.));
#564=DIRECTION('center_axis',(0.,0.,-1.));
#565=DIRECTION('ref_axis',(1.,0.,0.));
#566=DIRECTION('center_axis',(0.,0.,1.));
#567=DIRECTION('ref_axis',(1.,0.,0.));
#568=DIRECTION('center_axis',(0.,0.,-1.));
#569=DIRECTION('ref_axis',(1.,0.,0.));
#570=DIRECTION('',(0.,0.,-1.));
#571=DIRECTION('center_axis',(0.,0.,-1.));
#572=DIRECTION('ref_axis',(1.,0.,0.));
#573=DIRECTION('center_axis',(0.,0.,1.));
#574=DIRECTION('ref_axis',(1.,0.,0.));
#575=DIRECTION('center_axis',(0.,0.,-1.));
#576=DIRECTION('ref_axis',(1.,0.,0.));
#577=DIRECTION('',(0.,0.,-1.));
#578=DIRECTION('center_axis',(0.,0.,-1.));
#579=DIRECTION('ref_axis',(1.,0.,0.));
#580=DIRECTION('center_axis',(-1.,0.,0.));
#581=DIRECTION('ref_axis',(0.,-1.,0.));
#582=DIRECTION('',(0.,-1.,0.));
#583=DIRECTION('',(0.,0.,1.));
#584=DIRECTION('',(0.,-1.,0.));
#585=DIRECTION('',(0.,0.,1.));
#586=DIRECTION('center_axis',(0.,0.,1.));
#587=DIRECTION('ref_axis',(0.,1.,0.));
#588=DIRECTION('center_axis',(0.,0.,1.));
#589=DIRECTION('ref_axis',(0.,1.,0.));
#590=DIRECTION('center_axis',(0.,0.,1.));
#591=DIRECTION('ref_axis',(0.,1.,0.));
#592=DIRECTION('',(0.,0.,1.));
#593=DIRECTION('center_axis',(0.,1.,0.));
#594=DIRECTION('ref_axis',(-1.,0.,0.));
#595=DIRECTION('',(-1.,0.,0.));
#596=DIRECTION('',(-1.,0.,0.));
#597=DIRECTION('',(0.,0.,1.));
#598=DIRECTION('center_axis',(0.,0.,1.));
#599=DIRECTION('ref_axis',(1.,0.,0.));
#600=DIRECTION('center_axis',(0.,0.,1.));
#601=DIRECTION('ref_axis',(1.,0.,0.));
#602=DIRECTION('center_axis',(0.,0.,1.));
#603=DIRECTION('ref_axis',(1.,0.,0.));
#604=DIRECTION('',(0.,0.,1.));
#605=DIRECTION('center_axis',(1.,0.,0.));
#606=DIRECTION('ref_axis',(0.,1.,0.));
#607=DIRECTION('',(0.,1.,0.));
#608=DIRECTION('',(0.,1.,0.));
#609=DIRECTION('',(0.,0.,1.));
#610=DIRECTION('center_axis',(0.,0.,1.));
#611=DIRECTION('ref_axis',(0.,-1.,0.));
#612=DIRECTION('center_axis',(0.,0.,1.));
#613=DIRECTION('ref_axis',(0.,-1.,0.));
#614=DIRECTION('center_axis',(0.,0.,1.));
#615=DIRECTION('ref_axis',(0.,-1.,0.));
#616=DIRECTION('',(0.,0.,1.));
#617=DIRECTION('center_axis',(0.,-1.,0.));
#618=DIRECTION('ref_axis',(1.,0.,0.));
#619=DIRECTION('',(1.,0.,0.));
#620=DIRECTION('',(1.,0.,0.));
#621=DIRECTION('',(0.,0.,1.));
#622=DIRECTION('center_axis',(0.,0.,1.));
#623=DIRECTION('ref_axis',(-1.,0.,0.));
#624=DIRECTION('center_axis',(0.,0.,1.));
#625=DIRECTION('ref_axis',(-1.,0.,0.));
#626=DIRECTION('center_axis',(0.,0.,1.));
#627=DIRECTION('ref_axis',(-1.,0.,0.));
#628=DIRECTION('center_axis',(0.,0.,1.));
#629=DIRECTION('ref_axis',(1.,0.,0.));
#630=DIRECTION('center_axis',(0.,0.,1.));
#631=DIRECTION('ref_axis',(1.,0.,0.));
#632=CARTESIAN_POINT('',(0.,0.,0.));
#633=CARTESIAN_POINT('Origin',(-15.95,-9.2,0.));
#634=CARTESIAN_POINT('',(-17.45,-9.2,0.3));
#635=CARTESIAN_POINT('Origin',(-15.95,-9.2,0.3));
#636=CARTESIAN_POINT('',(-17.45,-9.2,0.));
#637=CARTESIAN_POINT('',(-17.45,-9.2,0.));
#638=CARTESIAN_POINT('Origin',(-15.95,-9.2,0.));
#639=CARTESIAN_POINT('Origin',(-16.95,-11.6,0.));
#640=CARTESIAN_POINT('',(-17.11,-11.6,0.3));
#641=CARTESIAN_POINT('Origin',(-16.95,-11.6,0.3));
#642=CARTESIAN_POINT('',(-17.11,-11.6,0.));
#643=CARTESIAN_POINT('',(-17.11,-11.6,0.));
#644=CARTESIAN_POINT('Origin',(-16.95,-11.6,0.));
#645=CARTESIAN_POINT('Origin',(12.95,4.7,0.));
#646=CARTESIAN_POINT('',(10.2,4.7,0.3));
#647=CARTESIAN_POINT('Origin',(12.95,4.7,0.3));
#648=CARTESIAN_POINT('',(10.2,4.7,0.));
#649=CARTESIAN_POINT('',(10.2,4.7,0.));
#650=CARTESIAN_POINT('Origin',(12.95,4.7,0.));
#651=CARTESIAN_POINT('Origin',(-5.65,-11.6,0.));
#652=CARTESIAN_POINT('',(-5.81,-11.6,0.3));
#653=CARTESIAN_POINT('Origin',(-5.65,-11.6,0.3));
#654=CARTESIAN_POINT('',(-5.81,-11.6,0.));
#655=CARTESIAN_POINT('',(-5.81,-11.6,0.));
#656=CARTESIAN_POINT('Origin',(-5.65,-11.6,0.));
#657=CARTESIAN_POINT('Origin',(-8.65,11.6,0.));
#658=CARTESIAN_POINT('',(-8.81,11.6,0.3));
#659=CARTESIAN_POINT('Origin',(-8.65,11.6,0.3));
#660=CARTESIAN_POINT('',(-8.81,11.6,0.));
#661=CARTESIAN_POINT('',(-8.81,11.6,0.));
#662=CARTESIAN_POINT('Origin',(-8.65,11.6,0.));
#663=CARTESIAN_POINT('Origin',(7.45,11.6,0.));
#664=CARTESIAN_POINT('',(7.29,11.6,0.3));
#665=CARTESIAN_POINT('Origin',(7.45,11.6,0.3));
#666=CARTESIAN_POINT('',(7.29,11.6,0.));
#667=CARTESIAN_POINT('',(7.29,11.6,0.));
#668=CARTESIAN_POINT('Origin',(7.45,11.6,0.));
#669=CARTESIAN_POINT('Origin',(16.05,7.6,0.));
#670=CARTESIAN_POINT('',(15.89,7.6,0.3));
#671=CARTESIAN_POINT('Origin',(16.05,7.6,0.3));
#672=CARTESIAN_POINT('',(15.89,7.6,0.));
#673=CARTESIAN_POINT('',(15.89,7.6,0.));
#674=CARTESIAN_POINT('Origin',(16.05,7.6,0.));
#675=CARTESIAN_POINT('Origin',(-12.95,4.7,0.));
#676=CARTESIAN_POINT('',(-15.7,4.7,0.3));
#677=CARTESIAN_POINT('Origin',(-12.95,4.7,0.3));
#678=CARTESIAN_POINT('',(-15.7,4.7,0.));
#679=CARTESIAN_POINT('',(-15.7,4.7,0.));
#680=CARTESIAN_POINT('Origin',(-12.95,4.7,0.));
#681=CARTESIAN_POINT('Origin',(5.65,-11.6,0.));
#682=CARTESIAN_POINT('',(5.49,-11.6,0.3));
#683=CARTESIAN_POINT('Origin',(5.65,-11.6,0.3));
#684=CARTESIAN_POINT('',(5.49,-11.6,0.));
#685=CARTESIAN_POINT('',(5.49,-11.6,0.));
#686=CARTESIAN_POINT('Origin',(5.65,-11.6,0.));
#687=CARTESIAN_POINT('Origin',(-16.05,7.6,0.));
#688=CARTESIAN_POINT('',(-16.21,7.6,0.3));
#689=CARTESIAN_POINT('Origin',(-16.05,7.6,0.3));
#690=CARTESIAN_POINT('',(-16.21,7.6,0.));
#691=CARTESIAN_POINT('',(-16.21,7.6,0.));
#692=CARTESIAN_POINT('Origin',(-16.05,7.6,0.));
#693=CARTESIAN_POINT('Origin',(16.95,-11.6,0.));
#694=CARTESIAN_POINT('',(16.79,-11.6,0.3));
#695=CARTESIAN_POINT('Origin',(16.95,-11.6,0.3));
#696=CARTESIAN_POINT('',(16.79,-11.6,0.));
#697=CARTESIAN_POINT('',(16.79,-11.6,0.));
#698=CARTESIAN_POINT('Origin',(16.95,-11.6,0.));
#699=CARTESIAN_POINT('Origin',(-18.15,11.9,0.));
#700=CARTESIAN_POINT('',(-18.15,11.9,0.));
#701=CARTESIAN_POINT('',(-18.15,-11.9,0.));
#702=CARTESIAN_POINT('',(-18.15,11.9,0.));
#703=CARTESIAN_POINT('',(-18.15,-11.9,0.3));
#704=CARTESIAN_POINT('',(-18.15,-11.9,0.));
#705=CARTESIAN_POINT('',(-18.15,11.9,0.3));
#706=CARTESIAN_POINT('',(-18.15,11.9,0.3));
#707=CARTESIAN_POINT('',(-18.15,11.9,0.));
#708=CARTESIAN_POINT('Origin',(-17.85,11.9,0.));
#709=CARTESIAN_POINT('',(-17.85,12.2,0.));
#710=CARTESIAN_POINT('Origin',(-17.85,11.9,0.));
#711=CARTESIAN_POINT('',(-17.85,12.2,0.3));
#712=CARTESIAN_POINT('Origin',(-17.85,11.9,0.3));
#713=CARTESIAN_POINT('',(-17.85,12.2,0.));
#714=CARTESIAN_POINT('Origin',(17.85,12.2,0.));
#715=CARTESIAN_POINT('',(17.85,12.2,0.));
#716=CARTESIAN_POINT('',(17.85,12.2,0.));
#717=CARTESIAN_POINT('',(17.85,12.2,0.3));
#718=CARTESIAN_POINT('',(17.85,12.2,0.3));
#719=CARTESIAN_POINT('',(17.85,12.2,0.));
#720=CARTESIAN_POINT('Origin',(17.85,11.9,0.));
#721=CARTESIAN_POINT('',(18.15,11.9,0.));
#722=CARTESIAN_POINT('Origin',(17.85,11.9,0.));
#723=CARTESIAN_POINT('',(18.15,11.9,0.3));
#724=CARTESIAN_POINT('Origin',(17.85,11.9,0.3));
#725=CARTESIAN_POINT('',(18.15,11.9,0.));
#726=CARTESIAN_POINT('Origin',(18.15,-11.9,0.));
#727=CARTESIAN_POINT('',(18.15,-11.9,0.));
#728=CARTESIAN_POINT('',(18.15,-11.9,0.));
#729=CARTESIAN_POINT('',(18.15,-11.9,0.3));
#730=CARTESIAN_POINT('',(18.15,-11.9,0.3));
#731=CARTESIAN_POINT('',(18.15,-11.9,0.));
#732=CARTESIAN_POINT('Origin',(17.85,-11.9,0.));
#733=CARTESIAN_POINT('',(17.85,-12.2,0.));
#734=CARTESIAN_POINT('Origin',(17.85,-11.9,0.));
#735=CARTESIAN_POINT('',(17.85,-12.2,0.3));
#736=CARTESIAN_POINT('Origin',(17.85,-11.9,0.3));
#737=CARTESIAN_POINT('',(17.85,-12.2,0.));
#738=CARTESIAN_POINT('Origin',(-17.85,-12.2,0.));
#739=CARTESIAN_POINT('',(-17.85,-12.2,0.));
#740=CARTESIAN_POINT('',(-17.85,-12.2,0.));
#741=CARTESIAN_POINT('',(-17.85,-12.2,0.3));
#742=CARTESIAN_POINT('',(-17.85,-12.2,0.3));
#743=CARTESIAN_POINT('',(-17.85,-12.2,0.));
#744=CARTESIAN_POINT('Origin',(-17.85,-11.9,0.));
#745=CARTESIAN_POINT('Origin',(-17.85,-11.9,0.));
#746=CARTESIAN_POINT('Origin',(-17.85,-11.9,0.3));
#747=CARTESIAN_POINT('Origin',(0.,0.,0.3));
#748=CARTESIAN_POINT('Origin',(0.,0.,0.));
#749=UNCERTAINTY_MEASURE_WITH_UNIT(LENGTH_MEASURE(0.001),#753,
'DISTANCE_ACCURACY_VALUE',
'Maximum model space distance between geometric entities at asserted c
onnectivities');
#750=UNCERTAINTY_MEASURE_WITH_UNIT(LENGTH_MEASURE(0.001),#753,
'DISTANCE_ACCURACY_VALUE',
'Maximum model space distance between geometric entities at asserted c
onnectivities');
#751=(
GEOMETRIC_REPRESENTATION_CONTEXT(3)
GLOBAL_UNCERTAINTY_ASSIGNED_CONTEXT((#749))
GLOBAL_UNIT_ASSIGNED_CONTEXT((#753,#755,#756))
REPRESENTATION_CONTEXT('','3D')
);
#752=(
GEOMETRIC_REPRESENTATION_CONTEXT(3)
GLOBAL_UNCERTAINTY_ASSIGNED_CONTEXT((#750))
GLOBAL_UNIT_ASSIGNED_CONTEXT((#753,#755,#756))
REPRESENTATION_CONTEXT('','3D')
);
#753=(
LENGTH_UNIT()
NAMED_UNIT(*)
SI_UNIT(.CENTI.,.METRE.)
);
#754=(
LENGTH_UNIT()
NAMED_UNIT(*)
SI_UNIT($,.METRE.)
);
#755=(
NAMED_UNIT(*)
PLANE_ANGLE_UNIT()
SI_UNIT($,.RADIAN.)
);
#756=(
NAMED_UNIT(*)
SI_UNIT($,.STERADIAN.)
SOLID_ANGLE_UNIT()
);
#757=SHAPE_DEFINITION_REPRESENTATION(#758,#759);
#758=PRODUCT_DEFINITION_SHAPE('',$,#761);
#759=SHAPE_REPRESENTATION('',(#449),#751);
#760=PRODUCT_DEFINITION_CONTEXT('part definition',#765,'design');
#761=PRODUCT_DEFINITION('2026-09-01-00-57-07-219','RAMSidePlate',#762,#760);
#762=PRODUCT_DEFINITION_FORMATION('',$,#767);
#763=PRODUCT_RELATED_PRODUCT_CATEGORY('RAMSidePlate','RAMSidePlate',(#767));
#764=APPLICATION_PROTOCOL_DEFINITION('international standard',
'automotive_design',2009,#765);
#765=APPLICATION_CONTEXT(
'Core Data for Automotive Mechanical Design Process');
#766=PRODUCT_CONTEXT('part definition',#765,'mechanical');
#767=PRODUCT('2026-09-01-00-57-07-219','RAMSidePlate',$,(#766));
#768=PRESENTATION_STYLE_ASSIGNMENT((#769));
#769=SURFACE_STYLE_USAGE(.BOTH.,#770);
#770=SURFACE_SIDE_STYLE('',(#771));
#771=SURFACE_STYLE_FILL_AREA(#772);
#772=FILL_AREA_STYLE('Steel - Satin',(#773));
#773=FILL_AREA_STYLE_COLOUR('Steel - Satin',#774);
#774=COLOUR_RGB('Steel - Satin',0.627450980392157,0.627450980392157,0.627450980392157);
ENDSEC;
END-ISO-10303-21;
