ISO-10303-21;
HEADER;
/* Generated by software containing ST-Developer
 * from STEP Tools, Inc. (www.steptools.com) 
 */

FILE_DESCRIPTION(
/* description */ (''),
/* implementation_level */ '2;1');

FILE_NAME(
/* name */ 'SolidBackPlate.step',
/* time_stamp */ '2026-09-01T01:20:23+08:00',
/* author */ (''),
/* organization */ (''),
/* preprocessor_version */ 'ST-DEVELOPER v20.1',
/* originating_system */ 'Autodesk Translation Framework v15.8.0.0',
/* authorisation */ '');

FILE_SCHEMA (('AUTOMOTIVE_DESIGN { 1 0 10303 214 3 1 1 }'));
ENDSEC;

DATA;
#10=MECHANICAL_DESIGN_GEOMETRIC_PRESENTATION_REPRESENTATION('',(#13),#923);
#11=SHAPE_REPRESENTATION_RELATIONSHIP('SRR','None',#930,#12);
#12=ADVANCED_BREP_SHAPE_REPRESENTATION('',(#14),#922);
#13=STYLED_ITEM('',(#939),#14);
#14=MANIFOLD_SOLID_BREP('SolidBackPlate_QTY1',#543);
#15=FACE_BOUND('',#100,.T.);
#16=FACE_BOUND('',#101,.T.);
#17=FACE_BOUND('',#102,.T.);
#18=FACE_BOUND('',#103,.T.);
#19=FACE_BOUND('',#104,.T.);
#20=FACE_BOUND('',#105,.T.);
#21=FACE_BOUND('',#106,.T.);
#22=FACE_BOUND('',#107,.T.);
#23=FACE_BOUND('',#108,.T.);
#24=FACE_BOUND('',#109,.T.);
#25=FACE_BOUND('',#110,.T.);
#26=FACE_BOUND('',#111,.T.);
#27=FACE_BOUND('',#113,.T.);
#28=FACE_BOUND('',#114,.T.);
#29=FACE_BOUND('',#115,.T.);
#30=FACE_BOUND('',#116,.T.);
#31=FACE_BOUND('',#117,.T.);
#32=FACE_BOUND('',#118,.T.);
#33=FACE_BOUND('',#119,.T.);
#34=FACE_BOUND('',#120,.T.);
#35=FACE_BOUND('',#121,.T.);
#36=FACE_BOUND('',#122,.T.);
#37=FACE_BOUND('',#123,.T.);
#38=FACE_BOUND('',#124,.T.);
#39=PLANE('',#593);
#40=PLANE('',#597);
#41=PLANE('',#598);
#42=PLANE('',#599);
#43=PLANE('',#600);
#44=PLANE('',#601);
#45=PLANE('',#605);
#46=PLANE('',#609);
#47=PLANE('',#613);
#48=PLANE('',#614);
#49=FACE_OUTER_BOUND('',#75,.T.);
#50=FACE_OUTER_BOUND('',#76,.T.);
#51=FACE_OUTER_BOUND('',#77,.T.);
#52=FACE_OUTER_BOUND('',#78,.T.);
#53=FACE_OUTER_BOUND('',#79,.T.);
#54=FACE_OUTER_BOUND('',#80,.T.);
#55=FACE_OUTER_BOUND('',#81,.T.);
#56=FACE_OUTER_BOUND('',#82,.T.);
#57=FACE_OUTER_BOUND('',#83,.T.);
#58=FACE_OUTER_BOUND('',#84,.T.);
#59=FACE_OUTER_BOUND('',#85,.T.);
#60=FACE_OUTER_BOUND('',#86,.T.);
#61=FACE_OUTER_BOUND('',#87,.T.);
#62=FACE_OUTER_BOUND('',#88,.T.);
#63=FACE_OUTER_BOUND('',#89,.T.);
#64=FACE_OUTER_BOUND('',#90,.T.);
#65=FACE_OUTER_BOUND('',#91,.T.);
#66=FACE_OUTER_BOUND('',#92,.T.);
#67=FACE_OUTER_BOUND('',#93,.T.);
#68=FACE_OUTER_BOUND('',#94,.T.);
#69=FACE_OUTER_BOUND('',#95,.T.);
#70=FACE_OUTER_BOUND('',#96,.T.);
#71=FACE_OUTER_BOUND('',#97,.T.);
#72=FACE_OUTER_BOUND('',#98,.T.);
#73=FACE_OUTER_BOUND('',#99,.T.);
#74=FACE_OUTER_BOUND('',#112,.T.);
#75=EDGE_LOOP('',(#357,#358,#359,#360));
#76=EDGE_LOOP('',(#361,#362,#363,#364));
#77=EDGE_LOOP('',(#365,#366,#367,#368));
#78=EDGE_LOOP('',(#369,#370,#371,#372));
#79=EDGE_LOOP('',(#373,#374,#375,#376));
#80=EDGE_LOOP('',(#377,#378,#379,#380));
#81=EDGE_LOOP('',(#381,#382,#383,#384));
#82=EDGE_LOOP('',(#385,#386,#387,#388));
#83=EDGE_LOOP('',(#389,#390,#391,#392));
#84=EDGE_LOOP('',(#393,#394,#395,#396));
#85=EDGE_LOOP('',(#397,#398,#399,#400));
#86=EDGE_LOOP('',(#401,#402,#403,#404));
#87=EDGE_LOOP('',(#405,#406,#407,#408));
#88=EDGE_LOOP('',(#409,#410,#411,#412));
#89=EDGE_LOOP('',(#413,#414,#415,#416));
#90=EDGE_LOOP('',(#417,#418,#419,#420));
#91=EDGE_LOOP('',(#421,#422,#423,#424));
#92=EDGE_LOOP('',(#425,#426,#427,#428));
#93=EDGE_LOOP('',(#429,#430,#431,#432));
#94=EDGE_LOOP('',(#433,#434,#435,#436));
#95=EDGE_LOOP('',(#437,#438,#439,#440));
#96=EDGE_LOOP('',(#441,#442,#443,#444));
#97=EDGE_LOOP('',(#445,#446,#447,#448));
#98=EDGE_LOOP('',(#449,#450,#451,#452));
#99=EDGE_LOOP('',(#453,#454,#455,#456,#457,#458,#459,#460,#461,#462,#463,
#464));
#100=EDGE_LOOP('',(#465));
#101=EDGE_LOOP('',(#466));
#102=EDGE_LOOP('',(#467));
#103=EDGE_LOOP('',(#468));
#104=EDGE_LOOP('',(#469));
#105=EDGE_LOOP('',(#470));
#106=EDGE_LOOP('',(#471));
#107=EDGE_LOOP('',(#472));
#108=EDGE_LOOP('',(#473));
#109=EDGE_LOOP('',(#474));
#110=EDGE_LOOP('',(#475));
#111=EDGE_LOOP('',(#476));
#112=EDGE_LOOP('',(#477,#478,#479,#480,#481,#482,#483,#484,#485,#486,#487,
#488));
#113=EDGE_LOOP('',(#489));
#114=EDGE_LOOP('',(#490));
#115=EDGE_LOOP('',(#491));
#116=EDGE_LOOP('',(#492));
#117=EDGE_LOOP('',(#493));
#118=EDGE_LOOP('',(#494));
#119=EDGE_LOOP('',(#495));
#120=EDGE_LOOP('',(#496));
#121=EDGE_LOOP('',(#497));
#122=EDGE_LOOP('',(#498));
#123=EDGE_LOOP('',(#499));
#124=EDGE_LOOP('',(#500));
#125=LINE('',#778,#165);
#126=LINE('',#784,#166);
#127=LINE('',#790,#167);
#128=LINE('',#796,#168);
#129=LINE('',#802,#169);
#130=LINE('',#808,#170);
#131=LINE('',#814,#171);
#132=LINE('',#820,#172);
#133=LINE('',#826,#173);
#134=LINE('',#832,#174);
#135=LINE('',#838,#175);
#136=LINE('',#844,#176);
#137=LINE('',#849,#177);
#138=LINE('',#851,#178);
#139=LINE('',#853,#179);
#140=LINE('',#854,#180);
#141=LINE('',#860,#181);
#142=LINE('',#863,#182);
#143=LINE('',#865,#183);
#144=LINE('',#866,#184);
#145=LINE('',#869,#185);
#146=LINE('',#871,#186);
#147=LINE('',#872,#187);
#148=LINE('',#875,#188);
#149=LINE('',#877,#189);
#150=LINE('',#878,#190);
#151=LINE('',#881,#191);
#152=LINE('',#883,#192);
#153=LINE('',#884,#193);
#154=LINE('',#887,#194);
#155=LINE('',#889,#195);
#156=LINE('',#890,#196);
#157=LINE('',#896,#197);
#158=LINE('',#899,#198);
#159=LINE('',#901,#199);
#160=LINE('',#902,#200);
#161=LINE('',#908,#201);
#162=LINE('',#911,#202);
#163=LINE('',#913,#203);
#164=LINE('',#914,#204);
#165=VECTOR('',#621,0.16);
#166=VECTOR('',#628,0.16);
#167=VECTOR('',#635,0.16);
#168=VECTOR('',#642,0.16);
#169=VECTOR('',#649,0.16);
#170=VECTOR('',#656,0.16);
#171=VECTOR('',#663,0.16);
#172=VECTOR('',#670,0.16);
#173=VECTOR('',#677,0.16);
#174=VECTOR('',#684,0.16);
#175=VECTOR('',#691,0.16);
#176=VECTOR('',#698,0.16);
#177=VECTOR('',#703,1.);
#178=VECTOR('',#704,1.);
#179=VECTOR('',#705,1.);
#180=VECTOR('',#706,1.);
#181=VECTOR('',#713,1.);
#182=VECTOR('',#716,1.);
#183=VECTOR('',#717,1.);
#184=VECTOR('',#718,1.);
#185=VECTOR('',#721,1.);
#186=VECTOR('',#722,1.);
#187=VECTOR('',#723,1.);
#188=VECTOR('',#726,1.);
#189=VECTOR('',#727,1.);
#190=VECTOR('',#728,1.);
#191=VECTOR('',#731,1.);
#192=VECTOR('',#732,1.);
#193=VECTOR('',#733,1.);
#194=VECTOR('',#736,1.);
#195=VECTOR('',#737,1.);
#196=VECTOR('',#738,1.);
#197=VECTOR('',#745,1.);
#198=VECTOR('',#748,1.);
#199=VECTOR('',#749,1.);
#200=VECTOR('',#750,1.);
#201=VECTOR('',#757,1.);
#202=VECTOR('',#760,1.);
#203=VECTOR('',#761,1.);
#204=VECTOR('',#762,1.);
#205=CIRCLE('',#558,0.16);
#206=CIRCLE('',#559,0.16);
#207=CIRCLE('',#561,0.16);
#208=CIRCLE('',#562,0.16);
#209=CIRCLE('',#564,0.16);
#210=CIRCLE('',#565,0.16);
#211=CIRCLE('',#567,0.16);
#212=CIRCLE('',#568,0.16);
#213=CIRCLE('',#570,0.16);
#214=CIRCLE('',#571,0.16);
#215=CIRCLE('',#573,0.16);
#216=CIRCLE('',#574,0.16);
#217=CIRCLE('',#576,0.16);
#218=CIRCLE('',#577,0.16);
#219=CIRCLE('',#579,0.16);
#220=CIRCLE('',#580,0.16);
#221=CIRCLE('',#582,0.16);
#222=CIRCLE('',#583,0.16);
#223=CIRCLE('',#585,0.16);
#224=CIRCLE('',#586,0.16);
#225=CIRCLE('',#588,0.16);
#226=CIRCLE('',#589,0.16);
#227=CIRCLE('',#591,0.16);
#228=CIRCLE('',#592,0.16);
#229=CIRCLE('',#595,0.299999999999999);
#230=CIRCLE('',#596,0.299999999999999);
#231=CIRCLE('',#603,0.299999999999997);
#232=CIRCLE('',#604,0.299999999999997);
#233=CIRCLE('',#607,0.299999999999999);
#234=CIRCLE('',#608,0.299999999999999);
#235=CIRCLE('',#611,0.299999999999997);
#236=CIRCLE('',#612,0.299999999999997);
#237=VERTEX_POINT('',#775);
#238=VERTEX_POINT('',#777);
#239=VERTEX_POINT('',#781);
#240=VERTEX_POINT('',#783);
#241=VERTEX_POINT('',#787);
#242=VERTEX_POINT('',#789);
#243=VERTEX_POINT('',#793);
#244=VERTEX_POINT('',#795);
#245=VERTEX_POINT('',#799);
#246=VERTEX_POINT('',#801);
#247=VERTEX_POINT('',#805);
#248=VERTEX_POINT('',#807);
#249=VERTEX_POINT('',#811);
#250=VERTEX_POINT('',#813);
#251=VERTEX_POINT('',#817);
#252=VERTEX_POINT('',#819);
#253=VERTEX_POINT('',#823);
#254=VERTEX_POINT('',#825);
#255=VERTEX_POINT('',#829);
#256=VERTEX_POINT('',#831);
#257=VERTEX_POINT('',#835);
#258=VERTEX_POINT('',#837);
#259=VERTEX_POINT('',#841);
#260=VERTEX_POINT('',#843);
#261=VERTEX_POINT('',#847);
#262=VERTEX_POINT('',#848);
#263=VERTEX_POINT('',#850);
#264=VERTEX_POINT('',#852);
#265=VERTEX_POINT('',#856);
#266=VERTEX_POINT('',#858);
#267=VERTEX_POINT('',#862);
#268=VERTEX_POINT('',#864);
#269=VERTEX_POINT('',#868);
#270=VERTEX_POINT('',#870);
#271=VERTEX_POINT('',#874);
#272=VERTEX_POINT('',#876);
#273=VERTEX_POINT('',#880);
#274=VERTEX_POINT('',#882);
#275=VERTEX_POINT('',#886);
#276=VERTEX_POINT('',#888);
#277=VERTEX_POINT('',#892);
#278=VERTEX_POINT('',#894);
#279=VERTEX_POINT('',#898);
#280=VERTEX_POINT('',#900);
#281=VERTEX_POINT('',#904);
#282=VERTEX_POINT('',#906);
#283=VERTEX_POINT('',#910);
#284=VERTEX_POINT('',#912);
#285=EDGE_CURVE('',#237,#237,#205,.T.);
#286=EDGE_CURVE('',#237,#238,#125,.T.);
#287=EDGE_CURVE('',#238,#238,#206,.T.);
#288=EDGE_CURVE('',#239,#239,#207,.T.);
#289=EDGE_CURVE('',#239,#240,#126,.T.);
#290=EDGE_CURVE('',#240,#240,#208,.T.);
#291=EDGE_CURVE('',#241,#241,#209,.T.);
#292=EDGE_CURVE('',#241,#242,#127,.T.);
#293=EDGE_CURVE('',#242,#242,#210,.T.);
#294=EDGE_CURVE('',#243,#243,#211,.T.);
#295=EDGE_CURVE('',#243,#244,#128,.T.);
#296=EDGE_CURVE('',#244,#244,#212,.T.);
#297=EDGE_CURVE('',#245,#245,#213,.T.);
#298=EDGE_CURVE('',#245,#246,#129,.T.);
#299=EDGE_CURVE('',#246,#246,#214,.T.);
#300=EDGE_CURVE('',#247,#247,#215,.T.);
#301=EDGE_CURVE('',#247,#248,#130,.T.);
#302=EDGE_CURVE('',#248,#248,#216,.T.);
#303=EDGE_CURVE('',#249,#249,#217,.T.);
#304=EDGE_CURVE('',#249,#250,#131,.T.);
#305=EDGE_CURVE('',#250,#250,#218,.T.);
#306=EDGE_CURVE('',#251,#251,#219,.T.);
#307=EDGE_CURVE('',#251,#252,#132,.T.);
#308=EDGE_CURVE('',#252,#252,#220,.T.);
#309=EDGE_CURVE('',#253,#253,#221,.T.);
#310=EDGE_CURVE('',#253,#254,#133,.T.);
#311=EDGE_CURVE('',#254,#254,#222,.T.);
#312=EDGE_CURVE('',#255,#255,#223,.T.);
#313=EDGE_CURVE('',#255,#256,#134,.T.);
#314=EDGE_CURVE('',#256,#256,#224,.T.);
#315=EDGE_CURVE('',#257,#257,#225,.T.);
#316=EDGE_CURVE('',#257,#258,#135,.T.);
#317=EDGE_CURVE('',#258,#258,#226,.T.);
#318=EDGE_CURVE('',#259,#259,#227,.T.);
#319=EDGE_CURVE('',#259,#260,#136,.T.);
#320=EDGE_CURVE('',#260,#260,#228,.T.);
#321=EDGE_CURVE('',#261,#262,#137,.T.);
#322=EDGE_CURVE('',#262,#263,#138,.T.);
#323=EDGE_CURVE('',#264,#263,#139,.T.);
#324=EDGE_CURVE('',#261,#264,#140,.T.);
#325=EDGE_CURVE('',#265,#261,#229,.T.);
#326=EDGE_CURVE('',#266,#264,#230,.T.);
#327=EDGE_CURVE('',#265,#266,#141,.T.);
#328=EDGE_CURVE('',#267,#265,#142,.T.);
#329=EDGE_CURVE('',#268,#266,#143,.T.);
#330=EDGE_CURVE('',#267,#268,#144,.T.);
#331=EDGE_CURVE('',#269,#267,#145,.T.);
#332=EDGE_CURVE('',#270,#268,#146,.T.);
#333=EDGE_CURVE('',#269,#270,#147,.T.);
#334=EDGE_CURVE('',#271,#269,#148,.T.);
#335=EDGE_CURVE('',#272,#270,#149,.T.);
#336=EDGE_CURVE('',#271,#272,#150,.T.);
#337=EDGE_CURVE('',#273,#271,#151,.T.);
#338=EDGE_CURVE('',#274,#272,#152,.T.);
#339=EDGE_CURVE('',#273,#274,#153,.T.);
#340=EDGE_CURVE('',#275,#273,#154,.T.);
#341=EDGE_CURVE('',#276,#274,#155,.T.);
#342=EDGE_CURVE('',#275,#276,#156,.T.);
#343=EDGE_CURVE('',#277,#275,#231,.T.);
#344=EDGE_CURVE('',#278,#276,#232,.T.);
#345=EDGE_CURVE('',#277,#278,#157,.T.);
#346=EDGE_CURVE('',#279,#277,#158,.T.);
#347=EDGE_CURVE('',#280,#278,#159,.T.);
#348=EDGE_CURVE('',#279,#280,#160,.T.);
#349=EDGE_CURVE('',#281,#279,#233,.T.);
#350=EDGE_CURVE('',#282,#280,#234,.T.);
#351=EDGE_CURVE('',#281,#282,#161,.T.);
#352=EDGE_CURVE('',#283,#281,#162,.T.);
#353=EDGE_CURVE('',#284,#282,#163,.T.);
#354=EDGE_CURVE('',#283,#284,#164,.T.);
#355=EDGE_CURVE('',#262,#283,#235,.T.);
#356=EDGE_CURVE('',#263,#284,#236,.T.);
#357=ORIENTED_EDGE('',*,*,#285,.F.);
#358=ORIENTED_EDGE('',*,*,#286,.T.);
#359=ORIENTED_EDGE('',*,*,#287,.T.);
#360=ORIENTED_EDGE('',*,*,#286,.F.);
#361=ORIENTED_EDGE('',*,*,#288,.F.);
#362=ORIENTED_EDGE('',*,*,#289,.T.);
#363=ORIENTED_EDGE('',*,*,#290,.T.);
#364=ORIENTED_EDGE('',*,*,#289,.F.);
#365=ORIENTED_EDGE('',*,*,#291,.F.);
#366=ORIENTED_EDGE('',*,*,#292,.T.);
#367=ORIENTED_EDGE('',*,*,#293,.T.);
#368=ORIENTED_EDGE('',*,*,#292,.F.);
#369=ORIENTED_EDGE('',*,*,#294,.F.);
#370=ORIENTED_EDGE('',*,*,#295,.T.);
#371=ORIENTED_EDGE('',*,*,#296,.T.);
#372=ORIENTED_EDGE('',*,*,#295,.F.);
#373=ORIENTED_EDGE('',*,*,#297,.F.);
#374=ORIENTED_EDGE('',*,*,#298,.T.);
#375=ORIENTED_EDGE('',*,*,#299,.T.);
#376=ORIENTED_EDGE('',*,*,#298,.F.);
#377=ORIENTED_EDGE('',*,*,#300,.F.);
#378=ORIENTED_EDGE('',*,*,#301,.T.);
#379=ORIENTED_EDGE('',*,*,#302,.T.);
#380=ORIENTED_EDGE('',*,*,#301,.F.);
#381=ORIENTED_EDGE('',*,*,#303,.F.);
#382=ORIENTED_EDGE('',*,*,#304,.T.);
#383=ORIENTED_EDGE('',*,*,#305,.T.);
#384=ORIENTED_EDGE('',*,*,#304,.F.);
#385=ORIENTED_EDGE('',*,*,#306,.F.);
#386=ORIENTED_EDGE('',*,*,#307,.T.);
#387=ORIENTED_EDGE('',*,*,#308,.T.);
#388=ORIENTED_EDGE('',*,*,#307,.F.);
#389=ORIENTED_EDGE('',*,*,#309,.F.);
#390=ORIENTED_EDGE('',*,*,#310,.T.);
#391=ORIENTED_EDGE('',*,*,#311,.T.);
#392=ORIENTED_EDGE('',*,*,#310,.F.);
#393=ORIENTED_EDGE('',*,*,#312,.F.);
#394=ORIENTED_EDGE('',*,*,#313,.T.);
#395=ORIENTED_EDGE('',*,*,#314,.T.);
#396=ORIENTED_EDGE('',*,*,#313,.F.);
#397=ORIENTED_EDGE('',*,*,#315,.F.);
#398=ORIENTED_EDGE('',*,*,#316,.T.);
#399=ORIENTED_EDGE('',*,*,#317,.T.);
#400=ORIENTED_EDGE('',*,*,#316,.F.);
#401=ORIENTED_EDGE('',*,*,#318,.F.);
#402=ORIENTED_EDGE('',*,*,#319,.T.);
#403=ORIENTED_EDGE('',*,*,#320,.T.);
#404=ORIENTED_EDGE('',*,*,#319,.F.);
#405=ORIENTED_EDGE('',*,*,#321,.T.);
#406=ORIENTED_EDGE('',*,*,#322,.T.);
#407=ORIENTED_EDGE('',*,*,#323,.F.);
#408=ORIENTED_EDGE('',*,*,#324,.F.);
#409=ORIENTED_EDGE('',*,*,#325,.T.);
#410=ORIENTED_EDGE('',*,*,#324,.T.);
#411=ORIENTED_EDGE('',*,*,#326,.F.);
#412=ORIENTED_EDGE('',*,*,#327,.F.);
#413=ORIENTED_EDGE('',*,*,#328,.T.);
#414=ORIENTED_EDGE('',*,*,#327,.T.);
#415=ORIENTED_EDGE('',*,*,#329,.F.);
#416=ORIENTED_EDGE('',*,*,#330,.F.);
#417=ORIENTED_EDGE('',*,*,#331,.T.);
#418=ORIENTED_EDGE('',*,*,#330,.T.);
#419=ORIENTED_EDGE('',*,*,#332,.F.);
#420=ORIENTED_EDGE('',*,*,#333,.F.);
#421=ORIENTED_EDGE('',*,*,#334,.T.);
#422=ORIENTED_EDGE('',*,*,#333,.T.);
#423=ORIENTED_EDGE('',*,*,#335,.F.);
#424=ORIENTED_EDGE('',*,*,#336,.F.);
#425=ORIENTED_EDGE('',*,*,#337,.T.);
#426=ORIENTED_EDGE('',*,*,#336,.T.);
#427=ORIENTED_EDGE('',*,*,#338,.F.);
#428=ORIENTED_EDGE('',*,*,#339,.F.);
#429=ORIENTED_EDGE('',*,*,#340,.T.);
#430=ORIENTED_EDGE('',*,*,#339,.T.);
#431=ORIENTED_EDGE('',*,*,#341,.F.);
#432=ORIENTED_EDGE('',*,*,#342,.F.);
#433=ORIENTED_EDGE('',*,*,#343,.T.);
#434=ORIENTED_EDGE('',*,*,#342,.T.);
#435=ORIENTED_EDGE('',*,*,#344,.F.);
#436=ORIENTED_EDGE('',*,*,#345,.F.);
#437=ORIENTED_EDGE('',*,*,#346,.T.);
#438=ORIENTED_EDGE('',*,*,#345,.T.);
#439=ORIENTED_EDGE('',*,*,#347,.F.);
#440=ORIENTED_EDGE('',*,*,#348,.F.);
#441=ORIENTED_EDGE('',*,*,#349,.T.);
#442=ORIENTED_EDGE('',*,*,#348,.T.);
#443=ORIENTED_EDGE('',*,*,#350,.F.);
#444=ORIENTED_EDGE('',*,*,#351,.F.);
#445=ORIENTED_EDGE('',*,*,#352,.T.);
#446=ORIENTED_EDGE('',*,*,#351,.T.);
#447=ORIENTED_EDGE('',*,*,#353,.F.);
#448=ORIENTED_EDGE('',*,*,#354,.F.);
#449=ORIENTED_EDGE('',*,*,#355,.T.);
#450=ORIENTED_EDGE('',*,*,#354,.T.);
#451=ORIENTED_EDGE('',*,*,#356,.F.);
#452=ORIENTED_EDGE('',*,*,#322,.F.);
#453=ORIENTED_EDGE('',*,*,#356,.T.);
#454=ORIENTED_EDGE('',*,*,#353,.T.);
#455=ORIENTED_EDGE('',*,*,#350,.T.);
#456=ORIENTED_EDGE('',*,*,#347,.T.);
#457=ORIENTED_EDGE('',*,*,#344,.T.);
#458=ORIENTED_EDGE('',*,*,#341,.T.);
#459=ORIENTED_EDGE('',*,*,#338,.T.);
#460=ORIENTED_EDGE('',*,*,#335,.T.);
#461=ORIENTED_EDGE('',*,*,#332,.T.);
#462=ORIENTED_EDGE('',*,*,#329,.T.);
#463=ORIENTED_EDGE('',*,*,#326,.T.);
#464=ORIENTED_EDGE('',*,*,#323,.T.);
#465=ORIENTED_EDGE('',*,*,#318,.T.);
#466=ORIENTED_EDGE('',*,*,#315,.T.);
#467=ORIENTED_EDGE('',*,*,#312,.T.);
#468=ORIENTED_EDGE('',*,*,#309,.T.);
#469=ORIENTED_EDGE('',*,*,#306,.T.);
#470=ORIENTED_EDGE('',*,*,#303,.T.);
#471=ORIENTED_EDGE('',*,*,#300,.T.);
#472=ORIENTED_EDGE('',*,*,#297,.T.);
#473=ORIENTED_EDGE('',*,*,#294,.T.);
#474=ORIENTED_EDGE('',*,*,#291,.T.);
#475=ORIENTED_EDGE('',*,*,#288,.T.);
#476=ORIENTED_EDGE('',*,*,#285,.T.);
#477=ORIENTED_EDGE('',*,*,#355,.F.);
#478=ORIENTED_EDGE('',*,*,#321,.F.);
#479=ORIENTED_EDGE('',*,*,#325,.F.);
#480=ORIENTED_EDGE('',*,*,#328,.F.);
#481=ORIENTED_EDGE('',*,*,#331,.F.);
#482=ORIENTED_EDGE('',*,*,#334,.F.);
#483=ORIENTED_EDGE('',*,*,#337,.F.);
#484=ORIENTED_EDGE('',*,*,#340,.F.);
#485=ORIENTED_EDGE('',*,*,#343,.F.);
#486=ORIENTED_EDGE('',*,*,#346,.F.);
#487=ORIENTED_EDGE('',*,*,#349,.F.);
#488=ORIENTED_EDGE('',*,*,#352,.F.);
#489=ORIENTED_EDGE('',*,*,#320,.F.);
#490=ORIENTED_EDGE('',*,*,#317,.F.);
#491=ORIENTED_EDGE('',*,*,#314,.F.);
#492=ORIENTED_EDGE('',*,*,#311,.F.);
#493=ORIENTED_EDGE('',*,*,#308,.F.);
#494=ORIENTED_EDGE('',*,*,#305,.F.);
#495=ORIENTED_EDGE('',*,*,#302,.F.);
#496=ORIENTED_EDGE('',*,*,#299,.F.);
#497=ORIENTED_EDGE('',*,*,#296,.F.);
#498=ORIENTED_EDGE('',*,*,#293,.F.);
#499=ORIENTED_EDGE('',*,*,#290,.F.);
#500=ORIENTED_EDGE('',*,*,#287,.F.);
#501=CYLINDRICAL_SURFACE('',#557,0.16);
#502=CYLINDRICAL_SURFACE('',#560,0.16);
#503=CYLINDRICAL_SURFACE('',#563,0.16);
#504=CYLINDRICAL_SURFACE('',#566,0.16);
#505=CYLINDRICAL_SURFACE('',#569,0.16);
#506=CYLINDRICAL_SURFACE('',#572,0.16);
#507=CYLINDRICAL_SURFACE('',#575,0.16);
#508=CYLINDRICAL_SURFACE('',#578,0.16);
#509=CYLINDRICAL_SURFACE('',#581,0.16);
#510=CYLINDRICAL_SURFACE('',#584,0.16);
#511=CYLINDRICAL_SURFACE('',#587,0.16);
#512=CYLINDRICAL_SURFACE('',#590,0.16);
#513=CYLINDRICAL_SURFACE('',#594,0.299999999999999);
#514=CYLINDRICAL_SURFACE('',#602,0.299999999999997);
#515=CYLINDRICAL_SURFACE('',#606,0.299999999999999);
#516=CYLINDRICAL_SURFACE('',#610,0.299999999999997);
#517=ADVANCED_FACE('',(#49),#501,.F.);
#518=ADVANCED_FACE('',(#50),#502,.F.);
#519=ADVANCED_FACE('',(#51),#503,.F.);
#520=ADVANCED_FACE('',(#52),#504,.F.);
#521=ADVANCED_FACE('',(#53),#505,.F.);
#522=ADVANCED_FACE('',(#54),#506,.F.);
#523=ADVANCED_FACE('',(#55),#507,.F.);
#524=ADVANCED_FACE('',(#56),#508,.F.);
#525=ADVANCED_FACE('',(#57),#509,.F.);
#526=ADVANCED_FACE('',(#58),#510,.F.);
#527=ADVANCED_FACE('',(#59),#511,.F.);
#528=ADVANCED_FACE('',(#60),#512,.F.);
#529=ADVANCED_FACE('',(#61),#39,.T.);
#530=ADVANCED_FACE('',(#62),#513,.T.);
#531=ADVANCED_FACE('',(#63),#40,.T.);
#532=ADVANCED_FACE('',(#64),#41,.T.);
#533=ADVANCED_FACE('',(#65),#42,.T.);
#534=ADVANCED_FACE('',(#66),#43,.T.);
#535=ADVANCED_FACE('',(#67),#44,.T.);
#536=ADVANCED_FACE('',(#68),#514,.T.);
#537=ADVANCED_FACE('',(#69),#45,.T.);
#538=ADVANCED_FACE('',(#70),#515,.T.);
#539=ADVANCED_FACE('',(#71),#46,.T.);
#540=ADVANCED_FACE('',(#72),#516,.T.);
#541=ADVANCED_FACE('',(#73,#15,#16,#17,#18,#19,#20,#21,#22,#23,#24,#25,
#26),#47,.T.);
#542=ADVANCED_FACE('',(#74,#27,#28,#29,#30,#31,#32,#33,#34,#35,#36,#37,
#38),#48,.F.);
#543=CLOSED_SHELL('',(#517,#518,#519,#520,#521,#522,#523,#524,#525,#526,
#527,#528,#529,#530,#531,#532,#533,#534,#535,#536,#537,#538,#539,#540,#541,
#542));
#544=DERIVED_UNIT_ELEMENT(#546,1.);
#545=DERIVED_UNIT_ELEMENT(#925,-3.);
#546=(
MASS_UNIT()
NAMED_UNIT(*)
SI_UNIT(.KILO.,.GRAM.)
);
#547=DERIVED_UNIT((#544,#545));
#548=MEASURE_REPRESENTATION_ITEM('density measure',
POSITIVE_RATIO_MEASURE(7850.),#547);
#549=PROPERTY_DEFINITION_REPRESENTATION(#554,#551);
#550=PROPERTY_DEFINITION_REPRESENTATION(#555,#552);
#551=REPRESENTATION('material name',(#553),#922);
#552=REPRESENTATION('density',(#548),#922);
#553=DESCRIPTIVE_REPRESENTATION_ITEM('Steel','Steel');
#554=PROPERTY_DEFINITION('material property','material name',#932);
#555=PROPERTY_DEFINITION('material property','density of part',#932);
#556=AXIS2_PLACEMENT_3D('',#773,#615,#616);
#557=AXIS2_PLACEMENT_3D('',#774,#617,#618);
#558=AXIS2_PLACEMENT_3D('',#776,#619,#620);
#559=AXIS2_PLACEMENT_3D('',#779,#622,#623);
#560=AXIS2_PLACEMENT_3D('',#780,#624,#625);
#561=AXIS2_PLACEMENT_3D('',#782,#626,#627);
#562=AXIS2_PLACEMENT_3D('',#785,#629,#630);
#563=AXIS2_PLACEMENT_3D('',#786,#631,#632);
#564=AXIS2_PLACEMENT_3D('',#788,#633,#634);
#565=AXIS2_PLACEMENT_3D('',#791,#636,#637);
#566=AXIS2_PLACEMENT_3D('',#792,#638,#639);
#567=AXIS2_PLACEMENT_3D('',#794,#640,#641);
#568=AXIS2_PLACEMENT_3D('',#797,#643,#644);
#569=AXIS2_PLACEMENT_3D('',#798,#645,#646);
#570=AXIS2_PLACEMENT_3D('',#800,#647,#648);
#571=AXIS2_PLACEMENT_3D('',#803,#650,#651);
#572=AXIS2_PLACEMENT_3D('',#804,#652,#653);
#573=AXIS2_PLACEMENT_3D('',#806,#654,#655);
#574=AXIS2_PLACEMENT_3D('',#809,#657,#658);
#575=AXIS2_PLACEMENT_3D('',#810,#659,#660);
#576=AXIS2_PLACEMENT_3D('',#812,#661,#662);
#577=AXIS2_PLACEMENT_3D('',#815,#664,#665);
#578=AXIS2_PLACEMENT_3D('',#816,#666,#667);
#579=AXIS2_PLACEMENT_3D('',#818,#668,#669);
#580=AXIS2_PLACEMENT_3D('',#821,#671,#672);
#581=AXIS2_PLACEMENT_3D('',#822,#673,#674);
#582=AXIS2_PLACEMENT_3D('',#824,#675,#676);
#583=AXIS2_PLACEMENT_3D('',#827,#678,#679);
#584=AXIS2_PLACEMENT_3D('',#828,#680,#681);
#585=AXIS2_PLACEMENT_3D('',#830,#682,#683);
#586=AXIS2_PLACEMENT_3D('',#833,#685,#686);
#587=AXIS2_PLACEMENT_3D('',#834,#687,#688);
#588=AXIS2_PLACEMENT_3D('',#836,#689,#690);
#589=AXIS2_PLACEMENT_3D('',#839,#692,#693);
#590=AXIS2_PLACEMENT_3D('',#840,#694,#695);
#591=AXIS2_PLACEMENT_3D('',#842,#696,#697);
#592=AXIS2_PLACEMENT_3D('',#845,#699,#700);
#593=AXIS2_PLACEMENT_3D('',#846,#701,#702);
#594=AXIS2_PLACEMENT_3D('',#855,#707,#708);
#595=AXIS2_PLACEMENT_3D('',#857,#709,#710);
#596=AXIS2_PLACEMENT_3D('',#859,#711,#712);
#597=AXIS2_PLACEMENT_3D('',#861,#714,#715);
#598=AXIS2_PLACEMENT_3D('',#867,#719,#720);
#599=AXIS2_PLACEMENT_3D('',#873,#724,#725);
#600=AXIS2_PLACEMENT_3D('',#879,#729,#730);
#601=AXIS2_PLACEMENT_3D('',#885,#734,#735);
#602=AXIS2_PLACEMENT_3D('',#891,#739,#740);
#603=AXIS2_PLACEMENT_3D('',#893,#741,#742);
#604=AXIS2_PLACEMENT_3D('',#895,#743,#744);
#605=AXIS2_PLACEMENT_3D('',#897,#746,#747);
#606=AXIS2_PLACEMENT_3D('',#903,#751,#752);
#607=AXIS2_PLACEMENT_3D('',#905,#753,#754);
#608=AXIS2_PLACEMENT_3D('',#907,#755,#756);
#609=AXIS2_PLACEMENT_3D('',#909,#758,#759);
#610=AXIS2_PLACEMENT_3D('',#915,#763,#764);
#611=AXIS2_PLACEMENT_3D('',#916,#765,#766);
#612=AXIS2_PLACEMENT_3D('',#917,#767,#768);
#613=AXIS2_PLACEMENT_3D('',#918,#769,#770);
#614=AXIS2_PLACEMENT_3D('',#919,#771,#772);
#615=DIRECTION('axis',(0.,0.,1.));
#616=DIRECTION('refdir',(1.,0.,0.));
#617=DIRECTION('center_axis',(0.,0.,1.));
#618=DIRECTION('ref_axis',(1.,0.,0.));
#619=DIRECTION('center_axis',(0.,0.,-1.));
#620=DIRECTION('ref_axis',(1.,0.,0.));
#621=DIRECTION('',(0.,0.,-1.));
#622=DIRECTION('center_axis',(0.,0.,-1.));
#623=DIRECTION('ref_axis',(1.,0.,0.));
#624=DIRECTION('center_axis',(0.,0.,1.));
#625=DIRECTION('ref_axis',(1.,0.,0.));
#626=DIRECTION('center_axis',(0.,0.,-1.));
#627=DIRECTION('ref_axis',(1.,0.,0.));
#628=DIRECTION('',(0.,0.,-1.));
#629=DIRECTION('center_axis',(0.,0.,-1.));
#630=DIRECTION('ref_axis',(1.,0.,0.));
#631=DIRECTION('center_axis',(0.,0.,1.));
#632=DIRECTION('ref_axis',(1.,0.,0.));
#633=DIRECTION('center_axis',(0.,0.,-1.));
#634=DIRECTION('ref_axis',(1.,0.,0.));
#635=DIRECTION('',(0.,0.,-1.));
#636=DIRECTION('center_axis',(0.,0.,-1.));
#637=DIRECTION('ref_axis',(1.,0.,0.));
#638=DIRECTION('center_axis',(0.,0.,1.));
#639=DIRECTION('ref_axis',(1.,0.,0.));
#640=DIRECTION('center_axis',(0.,0.,-1.));
#641=DIRECTION('ref_axis',(1.,0.,0.));
#642=DIRECTION('',(0.,0.,-1.));
#643=DIRECTION('center_axis',(0.,0.,-1.));
#644=DIRECTION('ref_axis',(1.,0.,0.));
#645=DIRECTION('center_axis',(0.,0.,1.));
#646=DIRECTION('ref_axis',(1.,0.,0.));
#647=DIRECTION('center_axis',(0.,0.,-1.));
#648=DIRECTION('ref_axis',(1.,0.,0.));
#649=DIRECTION('',(0.,0.,-1.));
#650=DIRECTION('center_axis',(0.,0.,-1.));
#651=DIRECTION('ref_axis',(1.,0.,0.));
#652=DIRECTION('center_axis',(0.,0.,1.));
#653=DIRECTION('ref_axis',(1.,0.,0.));
#654=DIRECTION('center_axis',(0.,0.,-1.));
#655=DIRECTION('ref_axis',(1.,0.,0.));
#656=DIRECTION('',(0.,0.,-1.));
#657=DIRECTION('center_axis',(0.,0.,-1.));
#658=DIRECTION('ref_axis',(1.,0.,0.));
#659=DIRECTION('center_axis',(0.,0.,1.));
#660=DIRECTION('ref_axis',(1.,0.,0.));
#661=DIRECTION('center_axis',(0.,0.,-1.));
#662=DIRECTION('ref_axis',(1.,0.,0.));
#663=DIRECTION('',(0.,0.,-1.));
#664=DIRECTION('center_axis',(0.,0.,-1.));
#665=DIRECTION('ref_axis',(1.,0.,0.));
#666=DIRECTION('center_axis',(0.,0.,1.));
#667=DIRECTION('ref_axis',(1.,0.,0.));
#668=DIRECTION('center_axis',(0.,0.,-1.));
#669=DIRECTION('ref_axis',(1.,0.,0.));
#670=DIRECTION('',(0.,0.,-1.));
#671=DIRECTION('center_axis',(0.,0.,-1.));
#672=DIRECTION('ref_axis',(1.,0.,0.));
#673=DIRECTION('center_axis',(0.,0.,1.));
#674=DIRECTION('ref_axis',(1.,0.,0.));
#675=DIRECTION('center_axis',(0.,0.,-1.));
#676=DIRECTION('ref_axis',(1.,0.,0.));
#677=DIRECTION('',(0.,0.,-1.));
#678=DIRECTION('center_axis',(0.,0.,-1.));
#679=DIRECTION('ref_axis',(1.,0.,0.));
#680=DIRECTION('center_axis',(0.,0.,1.));
#681=DIRECTION('ref_axis',(1.,0.,0.));
#682=DIRECTION('center_axis',(0.,0.,-1.));
#683=DIRECTION('ref_axis',(1.,0.,0.));
#684=DIRECTION('',(0.,0.,-1.));
#685=DIRECTION('center_axis',(0.,0.,-1.));
#686=DIRECTION('ref_axis',(1.,0.,0.));
#687=DIRECTION('center_axis',(0.,0.,1.));
#688=DIRECTION('ref_axis',(1.,0.,0.));
#689=DIRECTION('center_axis',(0.,0.,-1.));
#690=DIRECTION('ref_axis',(1.,0.,0.));
#691=DIRECTION('',(0.,0.,-1.));
#692=DIRECTION('center_axis',(0.,0.,-1.));
#693=DIRECTION('ref_axis',(1.,0.,0.));
#694=DIRECTION('center_axis',(0.,0.,1.));
#695=DIRECTION('ref_axis',(1.,0.,0.));
#696=DIRECTION('center_axis',(0.,0.,-1.));
#697=DIRECTION('ref_axis',(1.,0.,0.));
#698=DIRECTION('',(0.,0.,-1.));
#699=DIRECTION('center_axis',(0.,0.,-1.));
#700=DIRECTION('ref_axis',(1.,0.,0.));
#701=DIRECTION('center_axis',(-1.,0.,0.));
#702=DIRECTION('ref_axis',(0.,-1.,0.));
#703=DIRECTION('',(0.,-1.,0.));
#704=DIRECTION('',(0.,0.,1.));
#705=DIRECTION('',(0.,-1.,0.));
#706=DIRECTION('',(0.,0.,1.));
#707=DIRECTION('center_axis',(0.,0.,1.));
#708=DIRECTION('ref_axis',(0.,1.,0.));
#709=DIRECTION('center_axis',(0.,0.,1.));
#710=DIRECTION('ref_axis',(0.,1.,0.));
#711=DIRECTION('center_axis',(0.,0.,1.));
#712=DIRECTION('ref_axis',(0.,1.,0.));
#713=DIRECTION('',(0.,0.,1.));
#714=DIRECTION('center_axis',(0.,1.,0.));
#715=DIRECTION('ref_axis',(-1.,0.,0.));
#716=DIRECTION('',(-1.,0.,0.));
#717=DIRECTION('',(-1.,0.,0.));
#718=DIRECTION('',(0.,0.,1.));
#719=DIRECTION('center_axis',(1.,0.,0.));
#720=DIRECTION('ref_axis',(0.,1.,0.));
#721=DIRECTION('',(0.,1.,0.));
#722=DIRECTION('',(0.,1.,0.));
#723=DIRECTION('',(0.,0.,1.));
#724=DIRECTION('center_axis',(0.,1.,0.));
#725=DIRECTION('ref_axis',(-1.,0.,0.));
#726=DIRECTION('',(-1.,0.,0.));
#727=DIRECTION('',(-1.,0.,0.));
#728=DIRECTION('',(0.,0.,1.));
#729=DIRECTION('center_axis',(-1.,0.,0.));
#730=DIRECTION('ref_axis',(0.,-1.,0.));
#731=DIRECTION('',(0.,-1.,0.));
#732=DIRECTION('',(0.,-1.,0.));
#733=DIRECTION('',(0.,0.,1.));
#734=DIRECTION('center_axis',(0.,1.,0.));
#735=DIRECTION('ref_axis',(-1.,0.,0.));
#736=DIRECTION('',(-1.,0.,0.));
#737=DIRECTION('',(-1.,0.,0.));
#738=DIRECTION('',(0.,0.,1.));
#739=DIRECTION('center_axis',(0.,0.,1.));
#740=DIRECTION('ref_axis',(1.,0.,0.));
#741=DIRECTION('center_axis',(0.,0.,1.));
#742=DIRECTION('ref_axis',(1.,0.,0.));
#743=DIRECTION('center_axis',(0.,0.,1.));
#744=DIRECTION('ref_axis',(1.,0.,0.));
#745=DIRECTION('',(0.,0.,1.));
#746=DIRECTION('center_axis',(1.,0.,0.));
#747=DIRECTION('ref_axis',(0.,1.,0.));
#748=DIRECTION('',(0.,1.,0.));
#749=DIRECTION('',(0.,1.,0.));
#750=DIRECTION('',(0.,0.,1.));
#751=DIRECTION('center_axis',(0.,0.,1.));
#752=DIRECTION('ref_axis',(0.,-1.,0.));
#753=DIRECTION('center_axis',(0.,0.,1.));
#754=DIRECTION('ref_axis',(0.,-1.,0.));
#755=DIRECTION('center_axis',(0.,0.,1.));
#756=DIRECTION('ref_axis',(0.,-1.,0.));
#757=DIRECTION('',(0.,0.,1.));
#758=DIRECTION('center_axis',(0.,-1.,0.));
#759=DIRECTION('ref_axis',(1.,0.,0.));
#760=DIRECTION('',(1.,0.,0.));
#761=DIRECTION('',(1.,0.,0.));
#762=DIRECTION('',(0.,0.,1.));
#763=DIRECTION('center_axis',(0.,0.,1.));
#764=DIRECTION('ref_axis',(-1.,0.,0.));
#765=DIRECTION('center_axis',(0.,0.,1.));
#766=DIRECTION('ref_axis',(-1.,0.,0.));
#767=DIRECTION('center_axis',(0.,0.,1.));
#768=DIRECTION('ref_axis',(-1.,0.,0.));
#769=DIRECTION('center_axis',(0.,0.,1.));
#770=DIRECTION('ref_axis',(1.,0.,0.));
#771=DIRECTION('center_axis',(0.,0.,1.));
#772=DIRECTION('ref_axis',(1.,0.,0.));
#773=CARTESIAN_POINT('',(0.,0.,0.));
#774=CARTESIAN_POINT('Origin',(-8.65,11.6,0.));
#775=CARTESIAN_POINT('',(-8.81,11.6,0.3));
#776=CARTESIAN_POINT('Origin',(-8.65,11.6,0.3));
#777=CARTESIAN_POINT('',(-8.81,11.6,0.));
#778=CARTESIAN_POINT('',(-8.81,11.6,0.));
#779=CARTESIAN_POINT('Origin',(-8.65,11.6,0.));
#780=CARTESIAN_POINT('Origin',(-5.65,-11.6,0.));
#781=CARTESIAN_POINT('',(-5.81,-11.6,0.3));
#782=CARTESIAN_POINT('Origin',(-5.65,-11.6,0.3));
#783=CARTESIAN_POINT('',(-5.81,-11.6,0.));
#784=CARTESIAN_POINT('',(-5.81,-11.6,0.));
#785=CARTESIAN_POINT('Origin',(-5.65,-11.6,0.));
#786=CARTESIAN_POINT('Origin',(-16.95,-11.6,0.));
#787=CARTESIAN_POINT('',(-17.11,-11.6,0.3));
#788=CARTESIAN_POINT('Origin',(-16.95,-11.6,0.3));
#789=CARTESIAN_POINT('',(-17.11,-11.6,0.));
#790=CARTESIAN_POINT('',(-17.11,-11.6,0.));
#791=CARTESIAN_POINT('Origin',(-16.95,-11.6,0.));
#792=CARTESIAN_POINT('Origin',(-16.05,7.6,0.));
#793=CARTESIAN_POINT('',(-16.21,7.6,0.3));
#794=CARTESIAN_POINT('Origin',(-16.05,7.6,0.3));
#795=CARTESIAN_POINT('',(-16.21,7.6,0.));
#796=CARTESIAN_POINT('',(-16.21,7.6,0.));
#797=CARTESIAN_POINT('Origin',(-16.05,7.6,0.));
#798=CARTESIAN_POINT('Origin',(7.45,11.6,0.));
#799=CARTESIAN_POINT('',(7.29,11.6,0.3));
#800=CARTESIAN_POINT('Origin',(7.45,11.6,0.3));
#801=CARTESIAN_POINT('',(7.29,11.6,0.));
#802=CARTESIAN_POINT('',(7.29,11.6,0.));
#803=CARTESIAN_POINT('Origin',(7.45,11.6,0.));
#804=CARTESIAN_POINT('Origin',(16.05,7.6,0.));
#805=CARTESIAN_POINT('',(15.89,7.6,0.3));
#806=CARTESIAN_POINT('Origin',(16.05,7.6,0.3));
#807=CARTESIAN_POINT('',(15.89,7.6,0.));
#808=CARTESIAN_POINT('',(15.89,7.6,0.));
#809=CARTESIAN_POINT('Origin',(16.05,7.6,0.));
#810=CARTESIAN_POINT('Origin',(16.95,-11.6,0.));
#811=CARTESIAN_POINT('',(16.79,-11.6,0.3));
#812=CARTESIAN_POINT('Origin',(16.95,-11.6,0.3));
#813=CARTESIAN_POINT('',(16.79,-11.6,0.));
#814=CARTESIAN_POINT('',(16.79,-11.6,0.));
#815=CARTESIAN_POINT('Origin',(16.95,-11.6,0.));
#816=CARTESIAN_POINT('Origin',(-13.45,-11.1,0.));
#817=CARTESIAN_POINT('',(-13.61,-11.1,0.3));
#818=CARTESIAN_POINT('Origin',(-13.45,-11.1,0.3));
#819=CARTESIAN_POINT('',(-13.61,-11.1,0.));
#820=CARTESIAN_POINT('',(-13.61,-11.1,0.));
#821=CARTESIAN_POINT('Origin',(-13.45,-11.1,0.));
#822=CARTESIAN_POINT('Origin',(5.65,-11.6,0.));
#823=CARTESIAN_POINT('',(5.49,-11.6,0.3));
#824=CARTESIAN_POINT('Origin',(5.65,-11.6,0.3));
#825=CARTESIAN_POINT('',(5.49,-11.6,0.));
#826=CARTESIAN_POINT('',(5.49,-11.6,0.));
#827=CARTESIAN_POINT('Origin',(5.65,-11.6,0.));
#828=CARTESIAN_POINT('Origin',(-13.55,-10.3,0.));
#829=CARTESIAN_POINT('',(-13.71,-10.3,0.3));
#830=CARTESIAN_POINT('Origin',(-13.55,-10.3,0.3));
#831=CARTESIAN_POINT('',(-13.71,-10.3,0.));
#832=CARTESIAN_POINT('',(-13.71,-10.3,0.));
#833=CARTESIAN_POINT('Origin',(-13.55,-10.3,0.));
#834=CARTESIAN_POINT('Origin',(-15.95,-7.6,0.));
#835=CARTESIAN_POINT('',(-16.11,-7.6,0.3));
#836=CARTESIAN_POINT('Origin',(-15.95,-7.6,0.3));
#837=CARTESIAN_POINT('',(-16.11,-7.6,0.));
#838=CARTESIAN_POINT('',(-16.11,-7.6,0.));
#839=CARTESIAN_POINT('Origin',(-15.95,-7.6,0.));
#840=CARTESIAN_POINT('Origin',(-14.55,-11.8,0.));
#841=CARTESIAN_POINT('',(-14.71,-11.8,0.3));
#842=CARTESIAN_POINT('Origin',(-14.55,-11.8,0.3));
#843=CARTESIAN_POINT('',(-14.71,-11.8,0.));
#844=CARTESIAN_POINT('',(-14.71,-11.8,0.));
#845=CARTESIAN_POINT('Origin',(-14.55,-11.8,0.));
#846=CARTESIAN_POINT('Origin',(-18.15,11.9,0.));
#847=CARTESIAN_POINT('',(-18.15,11.9,0.));
#848=CARTESIAN_POINT('',(-18.15,-11.9,0.));
#849=CARTESIAN_POINT('',(-18.15,11.9,0.));
#850=CARTESIAN_POINT('',(-18.15,-11.9,0.3));
#851=CARTESIAN_POINT('',(-18.15,-11.9,0.));
#852=CARTESIAN_POINT('',(-18.15,11.9,0.3));
#853=CARTESIAN_POINT('',(-18.15,11.9,0.3));
#854=CARTESIAN_POINT('',(-18.15,11.9,0.));
#855=CARTESIAN_POINT('Origin',(-17.85,11.9,0.));
#856=CARTESIAN_POINT('',(-17.85,12.2,0.));
#857=CARTESIAN_POINT('Origin',(-17.85,11.9,0.));
#858=CARTESIAN_POINT('',(-17.85,12.2,0.3));
#859=CARTESIAN_POINT('Origin',(-17.85,11.9,0.3));
#860=CARTESIAN_POINT('',(-17.85,12.2,0.));
#861=CARTESIAN_POINT('Origin',(-0.35,12.2,0.));
#862=CARTESIAN_POINT('',(-0.35,12.2,0.));
#863=CARTESIAN_POINT('',(-0.35,12.2,0.));
#864=CARTESIAN_POINT('',(-0.35,12.2,0.3));
#865=CARTESIAN_POINT('',(-0.35,12.2,0.3));
#866=CARTESIAN_POINT('',(-0.35,12.2,0.));
#867=CARTESIAN_POINT('Origin',(-0.35,11.7,0.));
#868=CARTESIAN_POINT('',(-0.35,11.7,0.));
#869=CARTESIAN_POINT('',(-0.35,11.7,0.));
#870=CARTESIAN_POINT('',(-0.35,11.7,0.3));
#871=CARTESIAN_POINT('',(-0.35,11.7,0.3));
#872=CARTESIAN_POINT('',(-0.35,11.7,0.));
#873=CARTESIAN_POINT('Origin',(0.15,11.7,0.));
#874=CARTESIAN_POINT('',(0.15,11.7,0.));
#875=CARTESIAN_POINT('',(0.15,11.7,0.));
#876=CARTESIAN_POINT('',(0.15,11.7,0.3));
#877=CARTESIAN_POINT('',(0.15,11.7,0.3));
#878=CARTESIAN_POINT('',(0.15,11.7,0.));
#879=CARTESIAN_POINT('Origin',(0.15,12.2,0.));
#880=CARTESIAN_POINT('',(0.15,12.2,0.));
#881=CARTESIAN_POINT('',(0.15,12.2,0.));
#882=CARTESIAN_POINT('',(0.15,12.2,0.3));
#883=CARTESIAN_POINT('',(0.15,12.2,0.3));
#884=CARTESIAN_POINT('',(0.15,12.2,0.));
#885=CARTESIAN_POINT('Origin',(17.85,12.2,0.));
#886=CARTESIAN_POINT('',(17.85,12.2,0.));
#887=CARTESIAN_POINT('',(17.85,12.2,0.));
#888=CARTESIAN_POINT('',(17.85,12.2,0.3));
#889=CARTESIAN_POINT('',(17.85,12.2,0.3));
#890=CARTESIAN_POINT('',(17.85,12.2,0.));
#891=CARTESIAN_POINT('Origin',(17.85,11.9,0.));
#892=CARTESIAN_POINT('',(18.15,11.9,0.));
#893=CARTESIAN_POINT('Origin',(17.85,11.9,0.));
#894=CARTESIAN_POINT('',(18.15,11.9,0.3));
#895=CARTESIAN_POINT('Origin',(17.85,11.9,0.3));
#896=CARTESIAN_POINT('',(18.15,11.9,0.));
#897=CARTESIAN_POINT('Origin',(18.15,-11.9,0.));
#898=CARTESIAN_POINT('',(18.15,-11.9,0.));
#899=CARTESIAN_POINT('',(18.15,-11.9,0.));
#900=CARTESIAN_POINT('',(18.15,-11.9,0.3));
#901=CARTESIAN_POINT('',(18.15,-11.9,0.3));
#902=CARTESIAN_POINT('',(18.15,-11.9,0.));
#903=CARTESIAN_POINT('Origin',(17.85,-11.9,0.));
#904=CARTESIAN_POINT('',(17.85,-12.2,0.));
#905=CARTESIAN_POINT('Origin',(17.85,-11.9,0.));
#906=CARTESIAN_POINT('',(17.85,-12.2,0.3));
#907=CARTESIAN_POINT('Origin',(17.85,-11.9,0.3));
#908=CARTESIAN_POINT('',(17.85,-12.2,0.));
#909=CARTESIAN_POINT('Origin',(-17.85,-12.2,0.));
#910=CARTESIAN_POINT('',(-17.85,-12.2,0.));
#911=CARTESIAN_POINT('',(-17.85,-12.2,0.));
#912=CARTESIAN_POINT('',(-17.85,-12.2,0.3));
#913=CARTESIAN_POINT('',(-17.85,-12.2,0.3));
#914=CARTESIAN_POINT('',(-17.85,-12.2,0.));
#915=CARTESIAN_POINT('Origin',(-17.85,-11.9,0.));
#916=CARTESIAN_POINT('Origin',(-17.85,-11.9,0.));
#917=CARTESIAN_POINT('Origin',(-17.85,-11.9,0.3));
#918=CARTESIAN_POINT('Origin',(0.,0.,0.3));
#919=CARTESIAN_POINT('Origin',(0.,0.,0.));
#920=UNCERTAINTY_MEASURE_WITH_UNIT(LENGTH_MEASURE(0.001),#924,
'DISTANCE_ACCURACY_VALUE',
'Maximum model space distance between geometric entities at asserted c
onnectivities');
#921=UNCERTAINTY_MEASURE_WITH_UNIT(LENGTH_MEASURE(0.001),#924,
'DISTANCE_ACCURACY_VALUE',
'Maximum model space distance between geometric entities at asserted c
onnectivities');
#922=(
GEOMETRIC_REPRESENTATION_CONTEXT(3)
GLOBAL_UNCERTAINTY_ASSIGNED_CONTEXT((#920))
GLOBAL_UNIT_ASSIGNED_CONTEXT((#924,#926,#927))
REPRESENTATION_CONTEXT('','3D')
);
#923=(
GEOMETRIC_REPRESENTATION_CONTEXT(3)
GLOBAL_UNCERTAINTY_ASSIGNED_CONTEXT((#921))
GLOBAL_UNIT_ASSIGNED_CONTEXT((#924,#926,#927))
REPRESENTATION_CONTEXT('','3D')
);
#924=(
LENGTH_UNIT()
NAMED_UNIT(*)
SI_UNIT(.CENTI.,.METRE.)
);
#925=(
LENGTH_UNIT()
NAMED_UNIT(*)
SI_UNIT($,.METRE.)
);
#926=(
NAMED_UNIT(*)
PLANE_ANGLE_UNIT()
SI_UNIT($,.RADIAN.)
);
#927=(
NAMED_UNIT(*)
SI_UNIT($,.STERADIAN.)
SOLID_ANGLE_UNIT()
);
#928=SHAPE_DEFINITION_REPRESENTATION(#929,#930);
#929=PRODUCT_DEFINITION_SHAPE('',$,#932);
#930=SHAPE_REPRESENTATION('',(#556),#922);
#931=PRODUCT_DEFINITION_CONTEXT('part definition',#936,'design');
#932=PRODUCT_DEFINITION('2026-09-01-01-20-23-036','SolidBackPlate',#933,
#931);
#933=PRODUCT_DEFINITION_FORMATION('',$,#938);
#934=PRODUCT_RELATED_PRODUCT_CATEGORY('SolidBackPlate','SolidBackPlate',
(#938));
#935=APPLICATION_PROTOCOL_DEFINITION('international standard',
'automotive_design',2009,#936);
#936=APPLICATION_CONTEXT(
'Core Data for Automotive Mechanical Design Process');
#937=PRODUCT_CONTEXT('part definition',#936,'mechanical');
#938=PRODUCT('2026-09-01-01-20-23-036','SolidBackPlate',$,(#937));
#939=PRESENTATION_STYLE_ASSIGNMENT((#940));
#940=SURFACE_STYLE_USAGE(.BOTH.,#941);
#941=SURFACE_SIDE_STYLE('',(#942));
#942=SURFACE_STYLE_FILL_AREA(#943);
#943=FILL_AREA_STYLE('Steel - Satin',(#944));
#944=FILL_AREA_STYLE_COLOUR('Steel - Satin',#945);
#945=COLOUR_RGB('Steel - Satin',0.627450980392157,0.627450980392157,0.627450980392157);
ENDSEC;
END-ISO-10303-21;
